<svg width="117" height="24" viewBox="0 0 117 24" fill="none" xmlns="http://www.w3.org/2000/svg">
<path d="M3.99999 14C3.81076 14.0007 3.62522 13.9476 3.46495 13.847C3.30467 13.7464 3.17623 13.6024 3.09454 13.4317C3.01286 13.261 2.98129 13.0706 3.00349 12.8827C3.0257 12.6948 3.10077 12.517 3.21999 12.37L13.12 2.17004C13.1943 2.08432 13.2955 2.0264 13.407 2.00577C13.5185 1.98515 13.6337 2.00305 13.7337 2.05654C13.8337 2.11004 13.9126 2.19594 13.9573 2.30015C14.0021 2.40436 14.0101 2.52069 13.98 2.63004L12.06 8.65004C12.0034 8.80156 11.9844 8.96456 12.0046 9.12505C12.0248 9.28553 12.0837 9.43872 12.1761 9.57147C12.2685 9.70421 12.3918 9.81256 12.5353 9.8872C12.6788 9.96185 12.8382 10.0006 13 10H20C20.1892 9.9994 20.3748 10.0525 20.535 10.1531C20.6953 10.2537 20.8238 10.3977 20.9054 10.5684C20.9871 10.7391 21.0187 10.9295 20.9965 11.1174C20.9743 11.3053 20.8992 11.4831 20.78 11.63L10.88 21.83C10.8057 21.9158 10.7045 21.9737 10.593 21.9943C10.4815 22.0149 10.3663 21.997 10.2663 21.9435C10.1663 21.89 10.0874 21.8041 10.0427 21.6999C9.99791 21.5957 9.98991 21.4794 10.02 21.37L11.94 15.35C11.9966 15.1985 12.0156 15.0355 11.9954 14.875C11.9752 14.7145 11.9163 14.5614 11.8239 14.4286C11.7315 14.2959 11.6082 14.1875 11.4647 14.1129C11.3212 14.0382 11.1617 13.9995 11 14H3.99999Z" stroke="#3A13E7" stroke-width="2" stroke-linecap="round" stroke-linejoin="round"/>
<path d="M33.0568 7.77273H34.3182L37.2841 15.017H37.3864L40.3523 7.77273H41.6136V16.5H40.625V9.86932H40.5398L37.8125 16.5H36.858L34.1307 9.86932H34.0455V16.5H33.0568V7.77273ZM46.2553 16.6364C45.6644 16.6364 45.146 16.4957 44.6999 16.2145C44.2567 15.9332 43.9102 15.5398 43.6602 15.0341C43.413 14.5284 43.2894 13.9375 43.2894 13.2614C43.2894 12.5795 43.413 11.9844 43.6602 11.4759C43.9102 10.9673 44.2567 10.5724 44.6999 10.2912C45.146 10.0099 45.6644 9.86932 46.2553 9.86932C46.8462 9.86932 47.3633 10.0099 47.8065 10.2912C48.2525 10.5724 48.5991 10.9673 48.8462 11.4759C49.0962 11.9844 49.2212 12.5795 49.2212 13.2614C49.2212 13.9375 49.0962 14.5284 48.8462 15.0341C48.5991 15.5398 48.2525 15.9332 47.8065 16.2145C47.3633 16.4957 46.8462 16.6364 46.2553 16.6364ZM46.2553 15.733C46.7042 15.733 47.0735 15.6179 47.3633 15.3878C47.6531 15.1577 47.8675 14.8551 48.0067 14.4801C48.146 14.1051 48.2156 13.6989 48.2156 13.2614C48.2156 12.8239 48.146 12.4162 48.0067 12.0384C47.8675 11.6605 47.6531 11.3551 47.3633 11.1222C47.0735 10.8892 46.7042 10.7727 46.2553 10.7727C45.8065 10.7727 45.4371 10.8892 45.1474 11.1222C44.8576 11.3551 44.6431 11.6605 44.5039 12.0384C44.3647 12.4162 44.2951 12.8239 44.2951 13.2614C44.2951 13.6989 44.3647 14.1051 44.5039 14.4801C44.6431 14.8551 44.8576 15.1577 45.1474 15.3878C45.4371 15.6179 45.8065 15.733 46.2553 15.733ZM50.8928 16.5V7.77273H51.8984V10.9943H51.9837C52.0575 10.8807 52.1598 10.7358 52.2905 10.5597C52.424 10.3807 52.6143 10.2216 52.8615 10.0824C53.1115 9.94034 53.4496 9.86932 53.8757 9.86932C54.4268 9.86932 54.9126 10.0071 55.3331 10.2827C55.7536 10.5582 56.0817 10.9489 56.3175 11.4545C56.5533 11.9602 56.6712 12.5568 56.6712 13.2443C56.6712 13.9375 56.5533 14.5384 56.3175 15.0469C56.0817 15.5526 55.755 15.9446 55.3374 16.223C54.9197 16.4986 54.4382 16.6364 53.8928 16.6364C53.4723 16.6364 53.1357 16.5668 52.8828 16.4276C52.63 16.2855 52.4354 16.125 52.299 15.946C52.1626 15.7642 52.0575 15.6136 51.9837 15.4943H51.8643V16.5H50.8928ZM51.8814 13.2273C51.8814 13.7216 51.9538 14.1577 52.0987 14.5355C52.2436 14.9105 52.4553 15.2045 52.7337 15.4176C53.0121 15.6278 53.353 15.733 53.7564 15.733C54.1768 15.733 54.5277 15.6222 54.8089 15.4006C55.093 15.1761 55.3061 14.875 55.4482 14.4972C55.593 14.1165 55.6655 13.6932 55.6655 13.2273C55.6655 12.767 55.5945 12.3523 55.4524 11.983C55.3132 11.6108 55.1016 11.3168 54.8175 11.1009C54.5362 10.8821 54.1825 10.7727 53.7564 10.7727C53.3473 10.7727 53.0036 10.8764 52.7251 11.0838C52.4467 11.2884 52.2365 11.5753 52.0945 11.9446C51.9524 12.3111 51.8814 12.7386 51.8814 13.2273ZM58.2095 16.5V9.95455H59.2152V16.5H58.2095ZM58.7209 8.86364C58.5249 8.86364 58.3558 8.79688 58.2138 8.66335C58.0746 8.52983 58.005 8.36932 58.005 8.18182C58.005 7.99432 58.0746 7.83381 58.2138 7.70028C58.3558 7.56676 58.5249 7.5 58.7209 7.5C58.9169 7.5 59.0845 7.56676 59.2237 7.70028C59.3658 7.83381 59.4368 7.99432 59.4368 8.18182C59.4368 8.36932 59.3658 8.52983 59.2237 8.66335C59.0845 8.79688 58.9169 8.86364 58.7209 8.86364ZM62.0629 7.77273V16.5H61.0572V7.77273H62.0629ZM66.6491 16.6364C66.0185 16.6364 65.4744 16.4972 65.017 16.2188C64.5625 15.9375 64.2116 15.5455 63.9645 15.0426C63.7202 14.5369 63.598 13.9489 63.598 13.2784C63.598 12.608 63.7202 12.017 63.9645 11.5057C64.2116 10.9915 64.5554 10.5909 64.9957 10.304C65.4389 10.0142 65.956 9.86932 66.5469 9.86932C66.8878 9.86932 67.2244 9.92614 67.5568 10.0398C67.8892 10.1534 68.1918 10.3381 68.4645 10.5938C68.7372 10.8466 68.9545 11.1818 69.1165 11.5994C69.2784 12.017 69.3594 12.5312 69.3594 13.142V13.5682H64.3139V12.6989H68.3366C68.3366 12.3295 68.2628 12 68.1151 11.7102C67.9702 11.4205 67.7628 11.1918 67.4929 11.0241C67.2259 10.8565 66.9105 10.7727 66.5469 10.7727C66.1463 10.7727 65.7997 10.8722 65.5071 11.071C65.2173 11.267 64.9943 11.5227 64.8381 11.8381C64.6818 12.1534 64.6037 12.4915 64.6037 12.8523V13.4318C64.6037 13.9261 64.6889 14.3452 64.8594 14.6889C65.0327 15.0298 65.2727 15.2898 65.5795 15.4688C65.8864 15.6449 66.2429 15.733 66.6491 15.733C66.9134 15.733 67.152 15.696 67.3651 15.6222C67.581 15.5455 67.767 15.4318 67.9233 15.2812C68.0795 15.1278 68.2003 14.9375 68.2855 14.7102L69.2571 14.983C69.1548 15.3125 68.983 15.6023 68.7415 15.8523C68.5 16.0994 68.2017 16.2926 67.8466 16.4318C67.4915 16.5682 67.0923 16.6364 66.6491 16.6364ZM70.8722 16.5V15.733L73.7528 12.5795C74.0909 12.2102 74.3693 11.8892 74.5881 11.6165C74.8068 11.3409 74.9688 11.0824 75.0739 10.8409C75.1818 10.5966 75.2358 10.3409 75.2358 10.0739C75.2358 9.76705 75.1619 9.50142 75.0142 9.27699C74.8693 9.05256 74.6705 8.87926 74.4176 8.7571C74.1648 8.63494 73.8807 8.57386 73.5653 8.57386C73.2301 8.57386 72.9375 8.64347 72.6875 8.78267C72.4403 8.91903 72.2486 9.1108 72.1122 9.35795C71.9787 9.60511 71.9119 9.89489 71.9119 10.2273H70.9062C70.9062 9.71591 71.0241 9.26705 71.2599 8.88068C71.4957 8.49432 71.8168 8.19318 72.223 7.97727C72.6321 7.76136 73.0909 7.65341 73.5994 7.65341C74.1108 7.65341 74.5639 7.76136 74.9588 7.97727C75.3537 8.19318 75.6634 8.48437 75.8878 8.85085C76.1122 9.21733 76.2244 9.625 76.2244 10.0739C76.2244 10.3949 76.1662 10.7088 76.0497 11.0156C75.9361 11.3196 75.7372 11.6591 75.4531 12.0341C75.1719 12.4062 74.7812 12.8608 74.2812 13.3977L72.321 15.4943V15.5625H76.3778V16.5H70.8722ZM83.0639 9.95455C83.0128 9.52273 82.8054 9.1875 82.4418 8.94886C82.0781 8.71023 81.6321 8.59091 81.1037 8.59091C80.7173 8.59091 80.3793 8.65341 80.0895 8.77841C79.8026 8.90341 79.5781 9.07528 79.4162 9.29403C79.2571 9.51278 79.1776 9.76136 79.1776 10.0398C79.1776 10.2727 79.233 10.473 79.3438 10.6406C79.4574 10.8054 79.6023 10.9432 79.7784 11.054C79.9545 11.1619 80.1392 11.2514 80.3324 11.3224C80.5256 11.3906 80.7031 11.446 80.8651 11.4886L81.7514 11.7273C81.9787 11.7869 82.2315 11.8693 82.5099 11.9744C82.7912 12.0795 83.0597 12.223 83.3153 12.4048C83.5739 12.5838 83.7869 12.8139 83.9545 13.0952C84.1222 13.3764 84.206 13.7216 84.206 14.1307C84.206 14.6023 84.0824 15.0284 83.8352 15.4091C83.5909 15.7898 83.233 16.0923 82.7614 16.3168C82.2926 16.5412 81.723 16.6534 81.0526 16.6534C80.4276 16.6534 79.8864 16.5526 79.429 16.3509C78.9744 16.1491 78.6165 15.8679 78.3551 15.5071C78.0966 15.1463 77.9503 14.7273 77.9162 14.25H79.0071C79.0355 14.5795 79.1463 14.8523 79.3395 15.0682C79.5355 15.2812 79.7827 15.4403 80.081 15.5455C80.3821 15.6477 80.706 15.6989 81.0526 15.6989C81.456 15.6989 81.8182 15.6335 82.1392 15.5028C82.4602 15.3693 82.7145 15.1847 82.902 14.9489C83.0895 14.7102 83.1832 14.4318 83.1832 14.1136C83.1832 13.8239 83.1023 13.5881 82.9403 13.4062C82.7784 13.2244 82.5653 13.0767 82.3011 12.9631C82.0369 12.8494 81.7514 12.75 81.4446 12.6648L80.3707 12.358C79.6889 12.1619 79.1491 11.8821 78.7514 11.5185C78.3537 11.1548 78.1548 10.679 78.1548 10.0909C78.1548 9.60227 78.2869 9.17614 78.5511 8.8125C78.8182 8.44602 79.1761 8.16193 79.625 7.96023C80.0767 7.75568 80.581 7.65341 81.1378 7.65341C81.7003 7.65341 82.2003 7.75426 82.6378 7.95597C83.0753 8.15483 83.4219 8.42756 83.6776 8.77415C83.9361 9.12074 84.0724 9.5142 84.0866 9.95455H83.0639ZM88.4663 16.6364C87.8526 16.6364 87.3242 16.4915 86.881 16.2017C86.4379 15.9119 86.0969 15.5128 85.8583 15.0043C85.6197 14.4957 85.5004 13.9148 85.5004 13.2614C85.5004 12.5966 85.6225 12.0099 85.8668 11.5014C86.114 10.9901 86.4577 10.5909 86.8981 10.304C87.3413 10.0142 87.8583 9.86932 88.4492 9.86932C88.9094 9.86932 89.3242 9.95455 89.6935 10.125C90.0629 10.2955 90.3654 10.5341 90.6012 10.8409C90.837 11.1477 90.9833 11.5057 91.0401 11.9148H90.0344C89.9577 11.6165 89.7873 11.3523 89.5231 11.1222C89.2617 10.8892 88.9094 10.7727 88.4663 10.7727C88.0742 10.7727 87.7305 10.875 87.435 11.0795C87.1424 11.2812 86.9137 11.5668 86.7489 11.9361C86.587 12.3026 86.506 12.733 86.506 13.2273C86.506 13.733 86.5856 14.1733 86.7447 14.5483C86.9066 14.9233 87.1339 15.2145 87.4265 15.4219C87.7219 15.6293 88.0685 15.733 88.4663 15.733C88.7276 15.733 88.9648 15.6875 89.1779 15.5966C89.391 15.5057 89.5714 15.375 89.7191 15.2045C89.8668 15.0341 89.9719 14.8295 90.0344 14.5909H91.0401C90.9833 14.9773 90.8427 15.3253 90.6183 15.6349C90.3967 15.9418 90.1026 16.1861 89.7362 16.3679C89.3725 16.5469 88.9492 16.6364 88.4663 16.6364ZM92.5103 16.5V9.95455H93.4819V10.9432H93.5501C93.6694 10.6193 93.8853 10.3565 94.1978 10.1548C94.5103 9.95312 94.8626 9.85227 95.2546 9.85227C95.3285 9.85227 95.4208 9.85369 95.5316 9.85653C95.6424 9.85937 95.7262 9.86364 95.783 9.86932V10.892C95.7489 10.8835 95.6708 10.8707 95.5487 10.8537C95.4293 10.8338 95.3029 10.8239 95.1694 10.8239C94.8512 10.8239 94.5671 10.8906 94.3171 11.0241C94.07 11.1548 93.8739 11.3366 93.729 11.5696C93.587 11.7997 93.516 12.0625 93.516 12.358V16.5H92.5103ZM99.5202 16.6364C98.8896 16.6364 98.3455 16.4972 97.8881 16.2188C97.4336 15.9375 97.0827 15.5455 96.8356 15.0426C96.5913 14.5369 96.4691 13.9489 96.4691 13.2784C96.4691 12.608 96.5913 12.017 96.8356 11.5057C97.0827 10.9915 97.4265 10.5909 97.8668 10.304C98.31 10.0142 98.8271 9.86932 99.418 9.86932C99.7589 9.86932 100.096 9.92614 100.428 10.0398C100.76 10.1534 101.063 10.3381 101.336 10.5938C101.608 10.8466 101.826 11.1818 101.988 11.5994C102.15 12.017 102.23 12.5312 102.23 13.142V13.5682H97.185V12.6989H101.208C101.208 12.3295 101.134 12 100.986 11.7102C100.841 11.4205 100.634 11.1918 100.364 11.0241C100.097 10.8565 99.7816 10.7727 99.418 10.7727C99.0174 10.7727 98.6708 10.8722 98.3782 11.071C98.0884 11.267 97.8654 11.5227 97.7092 11.8381C97.5529 12.1534 97.4748 12.4915 97.4748 12.8523V13.4318C97.4748 13.9261 97.56 14.3452 97.7305 14.6889C97.9038 15.0298 98.1438 15.2898 98.4506 15.4688C98.7575 15.6449 99.114 15.733 99.5202 15.733C99.7844 15.733 100.023 15.696 100.236 15.6222C100.452 15.5455 100.638 15.4318 100.794 15.2812C100.951 15.1278 101.071 14.9375 101.157 14.7102L102.128 14.983C102.026 15.3125 101.854 15.6023 101.613 15.8523C101.371 16.0994 101.073 16.2926 100.718 16.4318C100.363 16.5682 99.9634 16.6364 99.5202 16.6364ZM106.505 16.6364C105.874 16.6364 105.33 16.4972 104.873 16.2188C104.418 15.9375 104.067 15.5455 103.82 15.0426C103.576 14.5369 103.453 13.9489 103.453 13.2784C103.453 12.608 103.576 12.017 103.82 11.5057C104.067 10.9915 104.411 10.5909 104.851 10.304C105.294 10.0142 105.811 9.86932 106.402 9.86932C106.743 9.86932 107.08 9.92614 107.412 10.0398C107.745 10.1534 108.047 10.3381 108.32 10.5938C108.593 10.8466 108.81 11.1818 108.972 11.5994C109.134 12.017 109.215 12.5312 109.215 13.142V13.5682H104.169V12.6989H108.192C108.192 12.3295 108.118 12 107.971 11.7102C107.826 11.4205 107.618 11.1918 107.348 11.0241C107.081 10.8565 106.766 10.7727 106.402 10.7727C106.002 10.7727 105.655 10.8722 105.363 11.071C105.073 11.267 104.85 11.5227 104.694 11.8381C104.537 12.1534 104.459 12.4915 104.459 12.8523V13.4318C104.459 13.9261 104.544 14.3452 104.715 14.6889C104.888 15.0298 105.128 15.2898 105.435 15.4688C105.742 15.6449 106.098 15.733 106.505 15.733C106.769 15.733 107.007 15.696 107.221 15.6222C107.436 15.5455 107.623 15.4318 107.779 15.2812C107.935 15.1278 108.056 14.9375 108.141 14.7102L109.113 14.983C109.01 15.3125 108.838 15.6023 108.597 15.8523C108.355 16.0994 108.057 16.2926 107.702 16.4318C107.347 16.5682 106.948 16.6364 106.505 16.6364ZM111.75 12.5625V16.5H110.745V9.95455H111.716V10.9773H111.801C111.955 10.6449 112.188 10.3778 112.5 10.1761C112.813 9.97159 113.216 9.86932 113.711 9.86932C114.154 9.86932 114.542 9.96023 114.874 10.142C115.206 10.321 115.465 10.5938 115.65 10.9602C115.834 11.3239 115.926 11.7841 115.926 12.3409V16.5H114.921V12.4091C114.921 11.8949 114.787 11.4943 114.52 11.2074C114.253 10.9176 113.887 10.7727 113.421 10.7727C113.1 10.7727 112.813 10.8423 112.56 10.9815C112.31 11.1207 112.113 11.3239 111.968 11.5909C111.823 11.858 111.75 12.1818 111.75 12.5625Z" fill="white"/>
</svg>
