<svg width="220" height="122" viewBox="0 0 220 122" fill="none" xmlns="http://www.w3.org/2000/svg">
<g filter="url(#filter0_d_57_31)">
<rect x="77.8137" width="64" height="64" rx="16" fill="#6366F1"/>
<path d="M99.1471 34.6667C98.8948 34.6675 98.6474 34.5968 98.4337 34.4627C98.22 34.3285 98.0487 34.1365 97.9398 33.9089C97.8309 33.6813 97.7888 33.4275 97.8184 33.1769C97.848 32.9263 97.9481 32.6893 98.1071 32.4933L111.307 18.8933C111.406 18.7791 111.541 18.7018 111.69 18.6743C111.838 18.6468 111.992 18.6707 112.125 18.742C112.259 18.8133 112.364 18.9279 112.424 19.0668C112.483 19.2058 112.494 19.3609 112.454 19.5067L109.894 27.5333C109.818 27.7354 109.793 27.9527 109.82 28.1667C109.847 28.3807 109.925 28.5849 110.049 28.7619C110.172 28.9389 110.336 29.0834 110.527 29.1829C110.719 29.2824 110.931 29.334 111.147 29.3333H120.48C120.733 29.3325 120.98 29.4032 121.194 29.5374C121.408 29.6715 121.579 29.8635 121.688 30.0911C121.797 30.3187 121.839 30.5726 121.809 30.8231C121.779 31.0737 121.679 31.3107 121.52 31.5067L108.32 45.1067C108.221 45.221 108.086 45.2982 107.938 45.3257C107.789 45.3532 107.635 45.3293 107.502 45.258C107.369 45.1867 107.264 45.0721 107.204 44.9332C107.144 44.7943 107.134 44.6391 107.174 44.4933L109.734 36.4667C109.809 36.2646 109.835 36.0473 109.808 35.8333C109.781 35.6194 109.702 35.4151 109.579 35.2381C109.456 35.0611 109.291 34.9167 109.1 34.8171C108.909 34.7176 108.696 34.666 108.48 34.6667H99.1471Z" stroke="white" stroke-width="2" stroke-linecap="round" stroke-linejoin="round"/>
</g>
<mask id="path-3-inside-1_57_31" fill="white">
<path d="M12.5066 80.2386H15.0293L20.9611 94.7273H21.1657L27.0975 80.2386H29.6202V97.6932H27.643V84.4318H27.4725L22.018 97.6932H20.1089L14.6543 84.4318H14.4839V97.6932H12.5066V80.2386Z"/>
<path d="M48.5854 88.9659C48.5854 90.8068 48.253 92.3977 47.5883 93.7386C46.9235 95.0795 46.0116 96.1136 44.8525 96.8409C43.6934 97.5682 42.3695 97.9318 40.8809 97.9318C39.3922 97.9318 38.0684 97.5682 36.9093 96.8409C35.7502 96.1136 34.8383 95.0795 34.1735 93.7386C33.5087 92.3977 33.1763 90.8068 33.1763 88.9659C33.1763 87.125 33.5087 85.5341 34.1735 84.1932C34.8383 82.8523 35.7502 81.8182 36.9093 81.0909C38.0684 80.3636 39.3922 80 40.8809 80C42.3695 80 43.6934 80.3636 44.8525 81.0909C46.0116 81.8182 46.9235 82.8523 47.5883 84.1932C48.253 85.5341 48.5854 87.125 48.5854 88.9659ZM46.54 88.9659C46.54 87.4545 46.2871 86.179 45.7814 85.1392C45.2814 84.0994 44.6025 83.3125 43.7445 82.7784C42.8922 82.2443 41.9377 81.9773 40.8809 81.9773C39.8241 81.9773 38.8667 82.2443 38.0087 82.7784C37.1564 83.3125 36.4775 84.0994 35.9718 85.1392C35.4718 86.179 35.2218 87.4545 35.2218 88.9659C35.2218 90.4773 35.4718 91.7528 35.9718 92.7926C36.4775 93.8324 37.1564 94.6193 38.0087 95.1534C38.8667 95.6875 39.8241 95.9545 40.8809 95.9545C41.9377 95.9545 42.8922 95.6875 43.7445 95.1534C44.6025 94.6193 45.2814 93.8324 45.7814 92.7926C46.2871 91.7528 46.54 90.4773 46.54 88.9659Z"/>
<path d="M52.1394 97.6932V80.2386H58.2417C59.4576 80.2386 60.4604 80.4489 61.2502 80.8693C62.04 81.2841 62.628 81.8438 63.0144 82.5483C63.4008 83.2472 63.5939 84.0227 63.5939 84.875C63.5939 85.625 63.4604 86.2443 63.1934 86.733C62.932 87.2216 62.5854 87.608 62.1536 87.892C61.7275 88.1761 61.2644 88.3864 60.7644 88.5227V88.6932C61.2985 88.7273 61.8354 88.9148 62.3752 89.2557C62.915 89.5966 63.3667 90.0852 63.7303 90.7216C64.0939 91.358 64.2758 92.1364 64.2758 93.0568C64.2758 93.9318 64.0769 94.7188 63.6792 95.4176C63.2814 96.1165 62.6536 96.6705 61.7957 97.0795C60.9377 97.4886 59.8212 97.6932 58.4462 97.6932H52.1394ZM54.253 95.8182H58.4462C59.8269 95.8182 60.807 95.5511 61.3866 95.017C61.9718 94.4773 62.2644 93.8239 62.2644 93.0568C62.2644 92.4659 62.1138 91.9205 61.8127 91.4205C61.5116 90.9148 61.0826 90.5114 60.5258 90.2102C59.969 89.9034 59.3099 89.75 58.5485 89.75H54.253V95.8182ZM54.253 87.9091H58.1735C58.8099 87.9091 59.3837 87.7841 59.8951 87.5341C60.4121 87.2841 60.8212 86.9318 61.1224 86.4773C61.4292 86.0227 61.5826 85.4886 61.5826 84.875C61.5826 84.108 61.3155 83.4574 60.7814 82.9233C60.2474 82.3835 59.4008 82.1136 58.2417 82.1136H54.253V87.9091Z"/>
<path d="M69.8624 80.2386V97.6932H67.7488V80.2386H69.8624Z"/>
<path d="M74.1003 97.6932V80.2386H76.214V95.8182H84.3276V97.6932H74.1003Z"/>
<path d="M87.6003 97.6932V80.2386H98.1344V82.1136H89.714V88.0114H97.589V89.8864H89.714V95.8182H98.2708V97.6932H87.6003Z"/>
<path d="M101.637 97.6932V96.1591L107.399 89.8523C108.075 89.1136 108.632 88.4716 109.069 87.9261C109.507 87.375 109.83 86.858 110.041 86.375C110.257 85.8864 110.365 85.375 110.365 84.8409C110.365 84.2273 110.217 83.696 109.921 83.2472C109.632 82.7983 109.234 82.4517 108.728 82.2074C108.222 81.9631 107.654 81.8409 107.024 81.8409C106.353 81.8409 105.768 81.9801 105.268 82.2585C104.774 82.5312 104.39 82.9148 104.117 83.4091C103.85 83.9034 103.717 84.483 103.717 85.1477H101.705C101.705 84.125 101.941 83.2273 102.413 82.4545C102.884 81.6818 103.526 81.0795 104.339 80.6477C105.157 80.2159 106.075 80 107.092 80C108.115 80 109.021 80.2159 109.811 80.6477C110.6 81.0795 111.22 81.6619 111.669 82.3949C112.117 83.1278 112.342 83.9432 112.342 84.8409C112.342 85.483 112.225 86.1108 111.992 86.7244C111.765 87.3324 111.367 88.0114 110.799 88.7614C110.237 89.5057 109.455 90.4148 108.455 91.4886L104.535 95.6818V95.8182H112.649V97.6932H101.637Z"/>
<path d="M126.021 84.6023C125.919 83.7386 125.504 83.0682 124.776 82.5909C124.049 82.1136 123.157 81.875 122.1 81.875C121.328 81.875 120.651 82 120.072 82.25C119.498 82.5 119.049 82.8438 118.725 83.2812C118.407 83.7188 118.248 84.2159 118.248 84.7727C118.248 85.2386 118.359 85.6392 118.58 85.9744C118.808 86.304 119.098 86.5795 119.45 86.8011C119.802 87.017 120.171 87.196 120.558 87.3381C120.944 87.4744 121.299 87.5852 121.623 87.6705L123.396 88.1477C123.85 88.267 124.356 88.4318 124.913 88.642C125.475 88.8523 126.012 89.1392 126.524 89.5028C127.041 89.8608 127.467 90.321 127.802 90.8835C128.137 91.446 128.305 92.1364 128.305 92.9545C128.305 93.8977 128.058 94.75 127.563 95.5114C127.075 96.2727 126.359 96.8778 125.416 97.3267C124.478 97.7756 123.339 98 121.998 98C120.748 98 119.666 97.7983 118.751 97.3949C117.842 96.9915 117.126 96.429 116.603 95.7074C116.086 94.9858 115.794 94.1477 115.725 93.1932H117.907C117.964 93.8523 118.186 94.3977 118.572 94.8295C118.964 95.2557 119.458 95.5739 120.055 95.7841C120.657 95.9886 121.305 96.0909 121.998 96.0909C122.805 96.0909 123.529 95.9602 124.171 95.6989C124.813 95.4318 125.322 95.0625 125.697 94.5909C126.072 94.1136 126.259 93.5568 126.259 92.9205C126.259 92.3409 126.097 91.8693 125.774 91.5057C125.45 91.142 125.024 90.8466 124.495 90.6193C123.967 90.392 123.396 90.1932 122.782 90.0227L120.634 89.4091C119.271 89.017 118.191 88.4574 117.396 87.7301C116.6 87.0028 116.203 86.0511 116.203 84.875C116.203 83.8977 116.467 83.0455 116.995 82.3182C117.529 81.5852 118.245 81.017 119.143 80.6136C120.046 80.2045 121.055 80 122.169 80C123.294 80 124.294 80.2017 125.169 80.6051C126.044 81.0028 126.737 81.5483 127.248 82.2415C127.765 82.9347 128.038 83.7216 128.066 84.6023H126.021Z"/>
<path d="M145.825 85.6932H143.712C143.587 85.0852 143.368 84.5511 143.056 84.0909C142.749 83.6307 142.374 83.2443 141.931 82.9318C141.493 82.6136 141.007 82.375 140.473 82.2159C139.939 82.0568 139.382 81.9773 138.803 81.9773C137.746 81.9773 136.789 82.2443 135.931 82.7784C135.078 83.3125 134.399 84.0994 133.894 85.1392C133.394 86.179 133.144 87.4545 133.144 88.9659C133.144 90.4773 133.394 91.7528 133.894 92.7926C134.399 93.8324 135.078 94.6193 135.931 95.1534C136.789 95.6875 137.746 95.9545 138.803 95.9545C139.382 95.9545 139.939 95.875 140.473 95.7159C141.007 95.5568 141.493 95.321 141.931 95.0085C142.374 94.6903 142.749 94.3011 143.056 93.8409C143.368 93.375 143.587 92.8409 143.712 92.2386H145.825C145.666 93.1307 145.377 93.929 144.956 94.6335C144.536 95.3381 144.013 95.9375 143.388 96.4318C142.763 96.9205 142.061 97.2926 141.283 97.5483C140.51 97.804 139.683 97.9318 138.803 97.9318C137.314 97.9318 135.99 97.5682 134.831 96.8409C133.672 96.1136 132.76 95.0795 132.095 93.7386C131.431 92.3977 131.098 90.8068 131.098 88.9659C131.098 87.125 131.431 85.5341 132.095 84.1932C132.76 82.8523 133.672 81.8182 134.831 81.0909C135.99 80.3636 137.314 80 138.803 80C139.683 80 140.51 80.1278 141.283 80.3835C142.061 80.6392 142.763 81.0142 143.388 81.5085C144.013 81.9972 144.536 82.5938 144.956 83.2983C145.377 83.9972 145.666 84.7955 145.825 85.6932Z"/>
<path d="M149.241 97.6932V80.2386H155.139C156.502 80.2386 157.622 80.4716 158.497 80.9375C159.372 81.3977 160.019 82.0312 160.44 82.8381C160.86 83.6449 161.071 84.5625 161.071 85.5909C161.071 86.6193 160.86 87.5313 160.44 88.3267C160.019 89.1222 159.374 89.7472 158.505 90.2017C157.636 90.6506 156.525 90.875 155.173 90.875H150.4V88.9659H155.105C156.036 88.9659 156.786 88.8295 157.355 88.5568C157.928 88.2841 158.343 87.8977 158.599 87.3977C158.86 86.892 158.991 86.2898 158.991 85.5909C158.991 84.892 158.86 84.2812 158.599 83.7585C158.338 83.2358 157.92 82.8324 157.346 82.5483C156.772 82.2585 156.014 82.1136 155.071 82.1136H151.355V97.6932H149.241ZM157.457 89.8523L161.752 97.6932H159.298L155.071 89.8523H157.457Z"/>
<path d="M164.593 97.6932V80.2386H175.127V82.1136H166.706V88.0114H174.581V89.8864H166.706V95.8182H175.263V97.6932H164.593Z"/>
<path d="M178.936 97.6932V80.2386H189.47V82.1136H181.05V88.0114H188.925V89.8864H181.05V95.8182H189.607V97.6932H178.936Z"/>
<path d="M207.121 80.2386V97.6932H205.075L195.564 83.9886H195.394V97.6932H193.28V80.2386H195.325L204.871 93.9773H205.041V80.2386H207.121Z"/>
</mask>
<path d="M12.5066 80.2386H15.0293L20.9611 94.7273H21.1657L27.0975 80.2386H29.6202V97.6932H27.643V84.4318H27.4725L22.018 97.6932H20.1089L14.6543 84.4318H14.4839V97.6932H12.5066V80.2386Z" stroke="#FAFAFA" stroke-width="4" mask="url(#path-3-inside-1_57_31)"/>
<path d="M48.5854 88.9659C48.5854 90.8068 48.253 92.3977 47.5883 93.7386C46.9235 95.0795 46.0116 96.1136 44.8525 96.8409C43.6934 97.5682 42.3695 97.9318 40.8809 97.9318C39.3922 97.9318 38.0684 97.5682 36.9093 96.8409C35.7502 96.1136 34.8383 95.0795 34.1735 93.7386C33.5087 92.3977 33.1763 90.8068 33.1763 88.9659C33.1763 87.125 33.5087 85.5341 34.1735 84.1932C34.8383 82.8523 35.7502 81.8182 36.9093 81.0909C38.0684 80.3636 39.3922 80 40.8809 80C42.3695 80 43.6934 80.3636 44.8525 81.0909C46.0116 81.8182 46.9235 82.8523 47.5883 84.1932C48.253 85.5341 48.5854 87.125 48.5854 88.9659ZM46.54 88.9659C46.54 87.4545 46.2871 86.179 45.7814 85.1392C45.2814 84.0994 44.6025 83.3125 43.7445 82.7784C42.8922 82.2443 41.9377 81.9773 40.8809 81.9773C39.8241 81.9773 38.8667 82.2443 38.0087 82.7784C37.1564 83.3125 36.4775 84.0994 35.9718 85.1392C35.4718 86.179 35.2218 87.4545 35.2218 88.9659C35.2218 90.4773 35.4718 91.7528 35.9718 92.7926C36.4775 93.8324 37.1564 94.6193 38.0087 95.1534C38.8667 95.6875 39.8241 95.9545 40.8809 95.9545C41.9377 95.9545 42.8922 95.6875 43.7445 95.1534C44.6025 94.6193 45.2814 93.8324 45.7814 92.7926C46.2871 91.7528 46.54 90.4773 46.54 88.9659Z" stroke="#FAFAFA" stroke-width="4" mask="url(#path-3-inside-1_57_31)"/>
<path d="M52.1394 97.6932V80.2386H58.2417C59.4576 80.2386 60.4604 80.4489 61.2502 80.8693C62.04 81.2841 62.628 81.8438 63.0144 82.5483C63.4008 83.2472 63.5939 84.0227 63.5939 84.875C63.5939 85.625 63.4604 86.2443 63.1934 86.733C62.932 87.2216 62.5854 87.608 62.1536 87.892C61.7275 88.1761 61.2644 88.3864 60.7644 88.5227V88.6932C61.2985 88.7273 61.8354 88.9148 62.3752 89.2557C62.915 89.5966 63.3667 90.0852 63.7303 90.7216C64.0939 91.358 64.2758 92.1364 64.2758 93.0568C64.2758 93.9318 64.0769 94.7188 63.6792 95.4176C63.2814 96.1165 62.6536 96.6705 61.7957 97.0795C60.9377 97.4886 59.8212 97.6932 58.4462 97.6932H52.1394ZM54.253 95.8182H58.4462C59.8269 95.8182 60.807 95.5511 61.3866 95.017C61.9718 94.4773 62.2644 93.8239 62.2644 93.0568C62.2644 92.4659 62.1138 91.9205 61.8127 91.4205C61.5116 90.9148 61.0826 90.5114 60.5258 90.2102C59.969 89.9034 59.3099 89.75 58.5485 89.75H54.253V95.8182ZM54.253 87.9091H58.1735C58.8099 87.9091 59.3837 87.7841 59.8951 87.5341C60.4121 87.2841 60.8212 86.9318 61.1224 86.4773C61.4292 86.0227 61.5826 85.4886 61.5826 84.875C61.5826 84.108 61.3155 83.4574 60.7814 82.9233C60.2474 82.3835 59.4008 82.1136 58.2417 82.1136H54.253V87.9091Z" stroke="#FAFAFA" stroke-width="4" mask="url(#path-3-inside-1_57_31)"/>
<path d="M69.8624 80.2386V97.6932H67.7488V80.2386H69.8624Z" stroke="#FAFAFA" stroke-width="4" mask="url(#path-3-inside-1_57_31)"/>
<path d="M74.1003 97.6932V80.2386H76.214V95.8182H84.3276V97.6932H74.1003Z" stroke="#FAFAFA" stroke-width="4" mask="url(#path-3-inside-1_57_31)"/>
<path d="M87.6003 97.6932V80.2386H98.1344V82.1136H89.714V88.0114H97.589V89.8864H89.714V95.8182H98.2708V97.6932H87.6003Z" stroke="#FAFAFA" stroke-width="4" mask="url(#path-3-inside-1_57_31)"/>
<path d="M101.637 97.6932V96.1591L107.399 89.8523C108.075 89.1136 108.632 88.4716 109.069 87.9261C109.507 87.375 109.83 86.858 110.041 86.375C110.257 85.8864 110.365 85.375 110.365 84.8409C110.365 84.2273 110.217 83.696 109.921 83.2472C109.632 82.7983 109.234 82.4517 108.728 82.2074C108.222 81.9631 107.654 81.8409 107.024 81.8409C106.353 81.8409 105.768 81.9801 105.268 82.2585C104.774 82.5312 104.39 82.9148 104.117 83.4091C103.85 83.9034 103.717 84.483 103.717 85.1477H101.705C101.705 84.125 101.941 83.2273 102.413 82.4545C102.884 81.6818 103.526 81.0795 104.339 80.6477C105.157 80.2159 106.075 80 107.092 80C108.115 80 109.021 80.2159 109.811 80.6477C110.6 81.0795 111.22 81.6619 111.669 82.3949C112.117 83.1278 112.342 83.9432 112.342 84.8409C112.342 85.483 112.225 86.1108 111.992 86.7244C111.765 87.3324 111.367 88.0114 110.799 88.7614C110.237 89.5057 109.455 90.4148 108.455 91.4886L104.535 95.6818V95.8182H112.649V97.6932H101.637Z" stroke="#FAFAFA" stroke-width="4" mask="url(#path-3-inside-1_57_31)"/>
<path d="M126.021 84.6023C125.919 83.7386 125.504 83.0682 124.776 82.5909C124.049 82.1136 123.157 81.875 122.1 81.875C121.328 81.875 120.651 82 120.072 82.25C119.498 82.5 119.049 82.8438 118.725 83.2812C118.407 83.7188 118.248 84.2159 118.248 84.7727C118.248 85.2386 118.359 85.6392 118.58 85.9744C118.808 86.304 119.098 86.5795 119.45 86.8011C119.802 87.017 120.171 87.196 120.558 87.3381C120.944 87.4744 121.299 87.5852 121.623 87.6705L123.396 88.1477C123.85 88.267 124.356 88.4318 124.913 88.642C125.475 88.8523 126.012 89.1392 126.524 89.5028C127.041 89.8608 127.467 90.321 127.802 90.8835C128.137 91.446 128.305 92.1364 128.305 92.9545C128.305 93.8977 128.058 94.75 127.563 95.5114C127.075 96.2727 126.359 96.8778 125.416 97.3267C124.478 97.7756 123.339 98 121.998 98C120.748 98 119.666 97.7983 118.751 97.3949C117.842 96.9915 117.126 96.429 116.603 95.7074C116.086 94.9858 115.794 94.1477 115.725 93.1932H117.907C117.964 93.8523 118.186 94.3977 118.572 94.8295C118.964 95.2557 119.458 95.5739 120.055 95.7841C120.657 95.9886 121.305 96.0909 121.998 96.0909C122.805 96.0909 123.529 95.9602 124.171 95.6989C124.813 95.4318 125.322 95.0625 125.697 94.5909C126.072 94.1136 126.259 93.5568 126.259 92.9205C126.259 92.3409 126.097 91.8693 125.774 91.5057C125.45 91.142 125.024 90.8466 124.495 90.6193C123.967 90.392 123.396 90.1932 122.782 90.0227L120.634 89.4091C119.271 89.017 118.191 88.4574 117.396 87.7301C116.6 87.0028 116.203 86.0511 116.203 84.875C116.203 83.8977 116.467 83.0455 116.995 82.3182C117.529 81.5852 118.245 81.017 119.143 80.6136C120.046 80.2045 121.055 80 122.169 80C123.294 80 124.294 80.2017 125.169 80.6051C126.044 81.0028 126.737 81.5483 127.248 82.2415C127.765 82.9347 128.038 83.7216 128.066 84.6023H126.021Z" stroke="#FAFAFA" stroke-width="4" mask="url(#path-3-inside-1_57_31)"/>
<path d="M145.825 85.6932H143.712C143.587 85.0852 143.368 84.5511 143.056 84.0909C142.749 83.6307 142.374 83.2443 141.931 82.9318C141.493 82.6136 141.007 82.375 140.473 82.2159C139.939 82.0568 139.382 81.9773 138.803 81.9773C137.746 81.9773 136.789 82.2443 135.931 82.7784C135.078 83.3125 134.399 84.0994 133.894 85.1392C133.394 86.179 133.144 87.4545 133.144 88.9659C133.144 90.4773 133.394 91.7528 133.894 92.7926C134.399 93.8324 135.078 94.6193 135.931 95.1534C136.789 95.6875 137.746 95.9545 138.803 95.9545C139.382 95.9545 139.939 95.875 140.473 95.7159C141.007 95.5568 141.493 95.321 141.931 95.0085C142.374 94.6903 142.749 94.3011 143.056 93.8409C143.368 93.375 143.587 92.8409 143.712 92.2386H145.825C145.666 93.1307 145.377 93.929 144.956 94.6335C144.536 95.3381 144.013 95.9375 143.388 96.4318C142.763 96.9205 142.061 97.2926 141.283 97.5483C140.51 97.804 139.683 97.9318 138.803 97.9318C137.314 97.9318 135.99 97.5682 134.831 96.8409C133.672 96.1136 132.76 95.0795 132.095 93.7386C131.431 92.3977 131.098 90.8068 131.098 88.9659C131.098 87.125 131.431 85.5341 132.095 84.1932C132.76 82.8523 133.672 81.8182 134.831 81.0909C135.99 80.3636 137.314 80 138.803 80C139.683 80 140.51 80.1278 141.283 80.3835C142.061 80.6392 142.763 81.0142 143.388 81.5085C144.013 81.9972 144.536 82.5938 144.956 83.2983C145.377 83.9972 145.666 84.7955 145.825 85.6932Z" stroke="#FAFAFA" stroke-width="4" mask="url(#path-3-inside-1_57_31)"/>
<path d="M149.241 97.6932V80.2386H155.139C156.502 80.2386 157.622 80.4716 158.497 80.9375C159.372 81.3977 160.019 82.0312 160.44 82.8381C160.86 83.6449 161.071 84.5625 161.071 85.5909C161.071 86.6193 160.86 87.5313 160.44 88.3267C160.019 89.1222 159.374 89.7472 158.505 90.2017C157.636 90.6506 156.525 90.875 155.173 90.875H150.4V88.9659H155.105C156.036 88.9659 156.786 88.8295 157.355 88.5568C157.928 88.2841 158.343 87.8977 158.599 87.3977C158.86 86.892 158.991 86.2898 158.991 85.5909C158.991 84.892 158.86 84.2812 158.599 83.7585C158.338 83.2358 157.92 82.8324 157.346 82.5483C156.772 82.2585 156.014 82.1136 155.071 82.1136H151.355V97.6932H149.241ZM157.457 89.8523L161.752 97.6932H159.298L155.071 89.8523H157.457Z" stroke="#FAFAFA" stroke-width="4" mask="url(#path-3-inside-1_57_31)"/>
<path d="M164.593 97.6932V80.2386H175.127V82.1136H166.706V88.0114H174.581V89.8864H166.706V95.8182H175.263V97.6932H164.593Z" stroke="#FAFAFA" stroke-width="4" mask="url(#path-3-inside-1_57_31)"/>
<path d="M178.936 97.6932V80.2386H189.47V82.1136H181.05V88.0114H188.925V89.8864H181.05V95.8182H189.607V97.6932H178.936Z" stroke="#FAFAFA" stroke-width="4" mask="url(#path-3-inside-1_57_31)"/>
<path d="M207.121 80.2386V97.6932H205.075L195.564 83.9886H195.394V97.6932H193.28V80.2386H195.325L204.871 93.9773H205.041V80.2386H207.121Z" stroke="#FAFAFA" stroke-width="4" mask="url(#path-3-inside-1_57_31)"/>
<mask id="path-4-inside-2_57_31" fill="white">
<path d="M6.00568 110.864C5.94602 110.36 5.70407 109.969 5.27983 109.69C4.85559 109.412 4.33523 109.273 3.71875 109.273C3.26799 109.273 2.87358 109.346 2.53551 109.491C2.20076 109.637 1.93892 109.838 1.75 110.093C1.56439 110.348 1.47159 110.638 1.47159 110.963C1.47159 111.235 1.53622 111.469 1.66548 111.664C1.79806 111.856 1.96709 112.017 2.17259 112.146C2.37808 112.272 2.59351 112.377 2.81889 112.46C3.04427 112.539 3.25142 112.604 3.44034 112.653L4.47443 112.932C4.73958 113.001 5.03456 113.098 5.35938 113.22C5.6875 113.343 6.00071 113.51 6.29901 113.722C6.60062 113.931 6.8492 114.2 7.04474 114.528C7.24029 114.856 7.33807 115.259 7.33807 115.736C7.33807 116.286 7.19389 116.783 6.90554 117.227C6.6205 117.671 6.20289 118.024 5.6527 118.286C5.10582 118.548 4.44129 118.679 3.65909 118.679C2.92992 118.679 2.29853 118.561 1.76491 118.326C1.23461 118.091 0.816998 117.763 0.512074 117.342C0.210464 116.921 0.0397727 116.432 0 115.875H1.27273C1.30587 116.259 1.43513 116.578 1.66051 116.83C1.8892 117.078 2.17756 117.264 2.52557 117.386C2.87689 117.506 3.25473 117.565 3.65909 117.565C4.12973 117.565 4.55232 117.489 4.92685 117.337C5.30137 117.181 5.59801 116.965 5.81676 116.69C6.03551 116.412 6.14489 116.087 6.14489 115.716C6.14489 115.378 6.05043 115.103 5.86151 114.891C5.67259 114.679 5.42401 114.506 5.11577 114.374C4.80753 114.241 4.47443 114.125 4.11648 114.026L2.86364 113.668C2.06818 113.439 1.43845 113.112 0.974432 112.688C0.510417 112.264 0.278409 111.709 0.278409 111.023C0.278409 110.453 0.432528 109.955 0.740767 109.531C1.05232 109.104 1.46993 108.772 1.99361 108.537C2.5206 108.298 3.1089 108.179 3.75852 108.179C4.41477 108.179 4.99811 108.297 5.50852 108.532C6.01894 108.764 6.4233 109.082 6.72159 109.487C7.0232 109.891 7.18229 110.35 7.19886 110.864H6.00568Z"/>
<path d="M9.20614 118.5V110.864H10.3794V118.5H9.20614ZM9.80273 109.591C9.57404 109.591 9.37683 109.513 9.21111 109.357C9.04871 109.201 8.96751 109.014 8.96751 108.795C8.96751 108.577 9.04871 108.389 9.21111 108.234C9.37683 108.078 9.57404 108 9.80273 108C10.0314 108 10.227 108.078 10.3894 108.234C10.5551 108.389 10.638 108.577 10.638 108.795C10.638 109.014 10.5551 109.201 10.3894 109.357C10.227 109.513 10.0314 109.591 9.80273 109.591Z"/>
<path d="M17.9375 112.574L16.8835 112.872C16.8172 112.696 16.7195 112.526 16.5902 112.36C16.4643 112.191 16.2919 112.052 16.0732 111.942C15.8544 111.833 15.5743 111.778 15.233 111.778C14.7656 111.778 14.3762 111.886 14.0646 112.102C13.7564 112.314 13.6023 112.584 13.6023 112.912C13.6023 113.204 13.7083 113.434 13.9205 113.603C14.1326 113.772 14.464 113.913 14.9148 114.026L16.0483 114.304C16.7311 114.47 17.2398 114.723 17.5746 115.065C17.9093 115.403 18.0767 115.839 18.0767 116.372C18.0767 116.81 17.9508 117.201 17.6989 117.545C17.4503 117.89 17.1023 118.162 16.6548 118.361C16.2074 118.56 15.687 118.659 15.0938 118.659C14.3149 118.659 13.6702 118.49 13.1598 118.152C12.6494 117.814 12.3262 117.32 12.1903 116.67L13.304 116.392C13.41 116.803 13.6106 117.111 13.9055 117.317C14.2038 117.522 14.5933 117.625 15.0739 117.625C15.6207 117.625 16.0549 117.509 16.3764 117.277C16.7012 117.042 16.8636 116.76 16.8636 116.432C16.8636 116.167 16.7708 115.945 16.5852 115.766C16.3996 115.583 16.1146 115.447 15.7301 115.358L14.4574 115.06C13.758 114.894 13.2443 114.637 12.9162 114.289C12.5914 113.938 12.429 113.499 12.429 112.972C12.429 112.541 12.55 112.16 12.7919 111.828C13.0372 111.497 13.3703 111.237 13.7912 111.048C14.2154 110.859 14.696 110.764 15.233 110.764C15.9886 110.764 16.5819 110.93 17.0128 111.261C17.447 111.593 17.7552 112.03 17.9375 112.574Z"/>
<path d="M23.1639 110.864V111.858H19.2065V110.864H23.1639ZM20.3599 109.034H21.5332V116.312C21.5332 116.644 21.5813 116.893 21.6774 117.058C21.7768 117.221 21.9028 117.33 22.0552 117.386C22.211 117.439 22.3751 117.466 22.5474 117.466C22.6767 117.466 22.7827 117.459 22.8656 117.446C22.9484 117.429 23.0147 117.416 23.0645 117.406L23.3031 118.46C23.2235 118.49 23.1125 118.52 22.97 118.55C22.8275 118.583 22.6468 118.599 22.4281 118.599C22.0966 118.599 21.7718 118.528 21.4537 118.386C21.1388 118.243 20.877 118.026 20.6681 117.734C20.4627 117.443 20.3599 117.075 20.3599 116.631V109.034Z"/>
<path d="M28.0485 118.659C27.3127 118.659 26.678 118.497 26.1444 118.172C25.6141 117.844 25.2047 117.386 24.9164 116.8C24.6313 116.21 24.4888 115.524 24.4888 114.741C24.4888 113.959 24.6313 113.27 24.9164 112.673C25.2047 112.073 25.6058 111.606 26.1195 111.271C26.6365 110.933 27.2398 110.764 27.9292 110.764C28.3269 110.764 28.7196 110.83 29.1074 110.963C29.4952 111.096 29.8482 111.311 30.1664 111.609C30.4846 111.904 30.7381 112.295 30.927 112.783C31.1159 113.27 31.2104 113.87 31.2104 114.582V115.08H25.324V114.065H30.0172C30.0172 113.634 29.931 113.25 29.7587 112.912C29.5897 112.574 29.3477 112.307 29.0328 112.112C28.7213 111.916 28.3534 111.818 27.9292 111.818C27.4618 111.818 27.0575 111.934 26.7161 112.166C26.378 112.395 26.1178 112.693 25.9355 113.061C25.7533 113.429 25.6621 113.823 25.6621 114.244V114.92C25.6621 115.497 25.7615 115.986 25.9604 116.387C26.1626 116.785 26.4426 117.088 26.8006 117.297C27.1586 117.502 27.5745 117.605 28.0485 117.605C28.3567 117.605 28.6351 117.562 28.8837 117.476C29.1356 117.386 29.3527 117.254 29.535 117.078C29.7173 116.899 29.8581 116.677 29.9576 116.412L31.0911 116.73C30.9718 117.115 30.7712 117.453 30.4895 117.744C30.2078 118.033 29.8598 118.258 29.4455 118.42C29.0312 118.58 28.5655 118.659 28.0485 118.659Z"/>
<path d="M32.9952 118.5V110.864H34.1287V112.057H34.2282C34.3873 111.649 34.6441 111.333 34.9988 111.107C35.3534 110.879 35.7793 110.764 36.2765 110.764C36.7802 110.764 37.1995 110.879 37.5343 111.107C37.8723 111.333 38.1358 111.649 38.3248 112.057H38.4043C38.5998 111.662 38.8932 111.349 39.2843 111.117C39.6754 110.882 40.1444 110.764 40.6912 110.764C41.374 110.764 41.9325 110.978 42.3667 111.406C42.8008 111.83 43.0179 112.491 43.0179 113.389V118.5H41.8446V113.389C41.8446 112.826 41.6905 112.423 41.3823 112.181C41.074 111.939 40.7111 111.818 40.2935 111.818C39.7566 111.818 39.3406 111.981 39.0456 112.305C38.7507 112.627 38.6032 113.035 38.6032 113.528V118.5H37.41V113.27C37.41 112.836 37.2691 112.486 36.9874 112.221C36.7057 111.952 36.3427 111.818 35.8986 111.818C35.5937 111.818 35.3087 111.899 35.0435 112.062C34.7817 112.224 34.5695 112.45 34.4071 112.738C34.248 113.023 34.1685 113.353 34.1685 113.727V118.5H32.9952Z"/>
<path d="M47.4103 118.679C46.9264 118.679 46.4873 118.588 46.0929 118.406C45.6984 118.22 45.3852 117.953 45.1532 117.605C44.9212 117.254 44.8052 116.83 44.8052 116.332C44.8052 115.895 44.8914 115.54 45.0637 115.268C45.2361 114.993 45.4664 114.778 45.7548 114.622C46.0431 114.466 46.3613 114.35 46.7093 114.274C47.0607 114.195 47.4136 114.132 47.7683 114.085C48.2323 114.026 48.6085 113.981 48.8968 113.951C49.1885 113.918 49.4006 113.863 49.5332 113.787C49.6691 113.711 49.737 113.578 49.737 113.389V113.349C49.737 112.859 49.6028 112.478 49.3343 112.206C49.0692 111.934 48.6665 111.798 48.1262 111.798C47.5661 111.798 47.127 111.921 46.8088 112.166C46.4906 112.411 46.2669 112.673 46.1376 112.952L45.024 112.554C45.2228 112.09 45.488 111.729 45.8194 111.47C46.1542 111.208 46.5188 111.026 46.9132 110.923C47.3109 110.817 47.702 110.764 48.0865 110.764C48.3317 110.764 48.6135 110.794 48.9316 110.854C49.2531 110.91 49.563 111.028 49.8613 111.207C50.1629 111.386 50.4132 111.656 50.612 112.017C50.8109 112.378 50.9103 112.862 50.9103 113.469V118.5H49.737V117.466H49.6774C49.5978 117.632 49.4653 117.809 49.2797 117.998C49.094 118.187 48.8471 118.348 48.5389 118.48C48.2306 118.613 47.8545 118.679 47.4103 118.679ZM47.5893 117.625C48.0533 117.625 48.4444 117.534 48.7626 117.352C49.0841 117.169 49.3261 116.934 49.4885 116.646C49.6542 116.357 49.737 116.054 49.737 115.736V114.662C49.6873 114.722 49.5779 114.776 49.4089 114.826C49.2432 114.872 49.051 114.914 48.8322 114.95C48.6168 114.983 48.4063 115.013 48.2008 115.04C47.9986 115.063 47.8346 115.083 47.7086 115.099C47.4037 115.139 47.1187 115.204 46.8535 115.293C46.5917 115.379 46.3796 115.51 46.2172 115.686C46.0581 115.858 45.9785 116.094 45.9785 116.392C45.9785 116.8 46.1293 117.108 46.4309 117.317C46.7359 117.522 47.122 117.625 47.5893 117.625Z"/>
<path d="M59.8729 118.659C59.2365 118.659 58.6747 118.498 58.1875 118.177C57.7003 117.852 57.3191 117.395 57.044 116.805C56.7689 116.211 56.6314 115.51 56.6314 114.702C56.6314 113.9 56.7689 113.204 57.044 112.614C57.3191 112.024 57.7019 111.568 58.1925 111.246C58.683 110.925 59.2498 110.764 59.8928 110.764C60.3899 110.764 60.7827 110.847 61.071 111.013C61.3627 111.175 61.5848 111.361 61.7372 111.57C61.893 111.775 62.014 111.944 62.1001 112.077H62.1996V108.318H63.3729V118.5H62.2393V117.327H62.1001C62.014 117.466 61.8913 117.642 61.7322 117.854C61.5732 118.062 61.3461 118.25 61.0511 118.415C60.7562 118.578 60.3634 118.659 59.8729 118.659ZM60.032 117.605C60.5026 117.605 60.9003 117.482 61.2251 117.237C61.55 116.989 61.7969 116.646 61.9659 116.208C62.1349 115.767 62.2195 115.259 62.2195 114.682C62.2195 114.112 62.1366 113.613 61.9709 113.185C61.8052 112.754 61.5599 112.42 61.2351 112.181C60.9103 111.939 60.5092 111.818 60.032 111.818C59.5348 111.818 59.1205 111.946 58.7891 112.201C58.4609 112.453 58.214 112.796 58.0483 113.23C57.8859 113.661 57.8047 114.145 57.8047 114.682C57.8047 115.225 57.8875 115.719 58.0533 116.163C58.2223 116.604 58.4709 116.955 58.799 117.217C59.1304 117.476 59.5414 117.605 60.032 117.605Z"/>
<path d="M68.8864 118.659C68.1506 118.659 67.5159 118.497 66.9822 118.172C66.4519 117.844 66.0426 117.386 65.7543 116.8C65.4692 116.21 65.3267 115.524 65.3267 114.741C65.3267 113.959 65.4692 113.27 65.7543 112.673C66.0426 112.073 66.4437 111.606 66.9574 111.271C67.4744 110.933 68.0777 110.764 68.767 110.764C69.1648 110.764 69.5575 110.83 69.9453 110.963C70.3331 111.096 70.6861 111.311 71.0043 111.609C71.3224 111.904 71.576 112.295 71.7649 112.783C71.9538 113.27 72.0483 113.87 72.0483 114.582V115.08H66.1619V114.065H70.8551C70.8551 113.634 70.7689 113.25 70.5966 112.912C70.4276 112.574 70.1856 112.307 69.8707 112.112C69.5592 111.916 69.1913 111.818 68.767 111.818C68.2997 111.818 67.8954 111.934 67.554 112.166C67.2159 112.395 66.9557 112.693 66.7734 113.061C66.5911 113.429 66.5 113.823 66.5 114.244V114.92C66.5 115.497 66.5994 115.986 66.7983 116.387C67.0005 116.785 67.2805 117.088 67.6385 117.297C67.9965 117.502 68.4124 117.605 68.8864 117.605C69.1946 117.605 69.473 117.562 69.7216 117.476C69.9735 117.386 70.1906 117.254 70.3729 117.078C70.5552 116.899 70.696 116.677 70.7955 116.412L71.929 116.73C71.8097 117.115 71.6091 117.453 71.3274 117.744C71.0457 118.033 70.6977 118.258 70.2834 118.42C69.8691 118.58 69.4034 118.659 68.8864 118.659Z"/>
<path d="M80.0178 118.679C79.5339 118.679 79.0947 118.588 78.7003 118.406C78.3059 118.22 77.9927 117.953 77.7607 117.605C77.5286 117.254 77.4126 116.83 77.4126 116.332C77.4126 115.895 77.4988 115.54 77.6712 115.268C77.8435 114.993 78.0739 114.778 78.3622 114.622C78.6506 114.466 78.9688 114.35 79.3168 114.274C79.6681 114.195 80.0211 114.132 80.3757 114.085C80.8397 114.026 81.2159 113.981 81.5043 113.951C81.7959 113.918 82.008 113.863 82.1406 113.787C82.2765 113.711 82.3445 113.578 82.3445 113.389V113.349C82.3445 112.859 82.2102 112.478 81.9418 112.206C81.6766 111.934 81.2739 111.798 80.7337 111.798C80.1735 111.798 79.7344 111.921 79.4162 112.166C79.098 112.411 78.8743 112.673 78.745 112.952L77.6314 112.554C77.8303 112.09 78.0954 111.729 78.4268 111.47C78.7616 111.208 79.1262 111.026 79.5206 110.923C79.9183 110.817 80.3094 110.764 80.6939 110.764C80.9392 110.764 81.2209 110.794 81.5391 110.854C81.8606 110.91 82.1705 111.028 82.4688 111.207C82.7704 111.386 83.0206 111.656 83.2195 112.017C83.4183 112.378 83.5178 112.862 83.5178 113.469V118.5H82.3445V117.466H82.2848C82.2053 117.632 82.0727 117.809 81.8871 117.998C81.7015 118.187 81.4545 118.348 81.1463 118.48C80.8381 118.613 80.4619 118.679 80.0178 118.679ZM80.1967 117.625C80.6607 117.625 81.0518 117.534 81.37 117.352C81.6915 117.169 81.9335 116.934 82.0959 116.646C82.2616 116.357 82.3445 116.054 82.3445 115.736V114.662C82.2947 114.722 82.1854 114.776 82.0163 114.826C81.8506 114.872 81.6584 114.914 81.4396 114.95C81.2242 114.983 81.0137 115.013 80.8082 115.04C80.6061 115.063 80.442 115.083 80.316 115.099C80.0111 115.139 79.7261 115.204 79.4609 115.293C79.1991 115.379 78.987 115.51 78.8246 115.686C78.6655 115.858 78.5859 116.094 78.5859 116.392C78.5859 116.8 78.7367 117.108 79.0384 117.317C79.3433 117.522 79.7294 117.625 80.1967 117.625Z"/>
<path d="M86.8326 108.318V118.5H85.6593V108.318H86.8326Z"/>
<path d="M92.1832 118.659C91.4474 118.659 90.8127 118.497 90.2791 118.172C89.7488 117.844 89.3395 117.386 89.0511 116.8C88.7661 116.21 88.6236 115.524 88.6236 114.741C88.6236 113.959 88.7661 113.27 89.0511 112.673C89.3395 112.073 89.7405 111.606 90.2543 111.271C90.7713 110.933 91.3745 110.764 92.0639 110.764C92.4616 110.764 92.8544 110.83 93.2422 110.963C93.63 111.096 93.983 111.311 94.3011 111.609C94.6193 111.904 94.8729 112.295 95.0618 112.783C95.2507 113.27 95.3452 113.87 95.3452 114.582V115.08H89.4588V114.065H94.152C94.152 113.634 94.0658 113.25 93.8935 112.912C93.7244 112.574 93.4825 112.307 93.1676 112.112C92.8561 111.916 92.4882 111.818 92.0639 111.818C91.5966 111.818 91.1922 111.934 90.8509 112.166C90.5128 112.395 90.2526 112.693 90.0703 113.061C89.888 113.429 89.7969 113.823 89.7969 114.244V114.92C89.7969 115.497 89.8963 115.986 90.0952 116.387C90.2973 116.785 90.5774 117.088 90.9354 117.297C91.2933 117.502 91.7093 117.605 92.1832 117.605C92.4915 117.605 92.7699 117.562 93.0185 117.476C93.2704 117.386 93.4875 117.254 93.6697 117.078C93.852 116.899 93.9929 116.677 94.0923 116.412L95.2259 116.73C95.1065 117.115 94.906 117.453 94.6243 117.744C94.3426 118.033 93.9946 118.258 93.5803 118.42C93.166 118.58 92.7003 118.659 92.1832 118.659Z"/>
<path d="M97.13 118.5V110.864H98.2635V112.017H98.343C98.4822 111.639 98.7341 111.333 99.0987 111.097C99.4633 110.862 99.8743 110.744 100.332 110.744C100.418 110.744 100.526 110.746 100.655 110.749C100.784 110.753 100.882 110.758 100.948 110.764V111.957C100.908 111.947 100.817 111.933 100.675 111.913C100.536 111.889 100.388 111.878 100.232 111.878C99.861 111.878 99.5296 111.956 99.2379 112.112C98.9496 112.264 98.7209 112.476 98.5518 112.748C98.3861 113.016 98.3033 113.323 98.3033 113.668V118.5H97.13Z"/>
<path d="M106.138 110.864V111.858H102.181V110.864H106.138ZM103.335 109.034H104.508V116.312C104.508 116.644 104.556 116.893 104.652 117.058C104.751 117.221 104.877 117.33 105.03 117.386C105.186 117.439 105.35 117.466 105.522 117.466C105.651 117.466 105.757 117.459 105.84 117.446C105.923 117.429 105.989 117.416 106.039 117.406L106.278 118.46C106.198 118.49 106.087 118.52 105.945 118.55C105.802 118.583 105.621 118.599 105.403 118.599C105.071 118.599 104.746 118.528 104.428 118.386C104.113 118.243 103.852 118.026 103.643 117.734C103.437 117.443 103.335 117.075 103.335 116.631V109.034Z"/>
<path d="M110.151 118.679C109.667 118.679 109.228 118.588 108.833 118.406C108.439 118.22 108.125 117.953 107.893 117.605C107.661 117.254 107.545 116.83 107.545 116.332C107.545 115.895 107.632 115.54 107.804 115.268C107.976 114.993 108.207 114.778 108.495 114.622C108.783 114.466 109.102 114.35 109.45 114.274C109.801 114.195 110.154 114.132 110.509 114.085C110.973 114.026 111.349 113.981 111.637 113.951C111.929 113.918 112.141 113.863 112.273 113.787C112.409 113.711 112.477 113.578 112.477 113.389V113.349C112.477 112.859 112.343 112.478 112.075 112.206C111.809 111.934 111.407 111.798 110.866 111.798C110.306 111.798 109.867 111.921 109.549 112.166C109.231 112.411 109.007 112.673 108.878 112.952L107.764 112.554C107.963 112.09 108.228 111.729 108.56 111.47C108.894 111.208 109.259 111.026 109.653 110.923C110.051 110.817 110.442 110.764 110.827 110.764C111.072 110.764 111.354 110.794 111.672 110.854C111.993 110.91 112.303 111.028 112.602 111.207C112.903 111.386 113.153 111.656 113.352 112.017C113.551 112.378 113.651 112.862 113.651 113.469V118.5H112.477V117.466H112.418C112.338 117.632 112.205 117.809 112.02 117.998C111.834 118.187 111.587 118.348 111.279 118.48C110.971 118.613 110.595 118.679 110.151 118.679ZM110.33 117.625C110.794 117.625 111.185 117.534 111.503 117.352C111.824 117.169 112.066 116.934 112.229 116.646C112.394 116.357 112.477 116.054 112.477 115.736V114.662C112.428 114.722 112.318 114.776 112.149 114.826C111.983 114.872 111.791 114.914 111.572 114.95C111.357 114.983 111.147 115.013 110.941 115.04C110.739 115.063 110.575 115.083 110.449 115.099C110.144 115.139 109.859 115.204 109.594 115.293C109.332 115.379 109.12 115.51 108.957 115.686C108.798 115.858 108.719 116.094 108.719 116.392C108.719 116.8 108.87 117.108 109.171 117.317C109.476 117.522 109.862 117.625 110.33 117.625Z"/>
<path d="M121.201 112.574L120.147 112.872C120.081 112.696 119.983 112.526 119.854 112.36C119.728 112.191 119.556 112.052 119.337 111.942C119.118 111.833 118.838 111.778 118.497 111.778C118.029 111.778 117.64 111.886 117.328 112.102C117.02 112.314 116.866 112.584 116.866 112.912C116.866 113.204 116.972 113.434 117.184 113.603C117.396 113.772 117.728 113.913 118.178 114.026L119.312 114.304C119.995 114.47 120.503 114.723 120.838 115.065C121.173 115.403 121.34 115.839 121.34 116.372C121.34 116.81 121.214 117.201 120.963 117.545C120.714 117.89 120.366 118.162 119.919 118.361C119.471 118.56 118.951 118.659 118.357 118.659C117.579 118.659 116.934 118.49 116.423 118.152C115.913 117.814 115.59 117.32 115.454 116.67L116.568 116.392C116.674 116.803 116.874 117.111 117.169 117.317C117.468 117.522 117.857 117.625 118.338 117.625C118.884 117.625 119.319 117.509 119.64 117.277C119.965 117.042 120.127 116.76 120.127 116.432C120.127 116.167 120.035 115.945 119.849 115.766C119.663 115.583 119.378 115.447 118.994 115.358L117.721 115.06C117.022 114.894 116.508 114.637 116.18 114.289C115.855 113.938 115.693 113.499 115.693 112.972C115.693 112.541 115.814 112.16 116.056 111.828C116.301 111.497 116.634 111.237 117.055 111.048C117.479 110.859 117.96 110.764 118.497 110.764C119.252 110.764 119.846 110.93 120.276 111.261C120.711 111.593 121.019 112.03 121.201 112.574Z"/>
<path d="M130.246 118.659C129.51 118.659 128.875 118.497 128.342 118.172C127.811 117.844 127.402 117.386 127.114 116.8C126.829 116.21 126.686 115.524 126.686 114.741C126.686 113.959 126.829 113.27 127.114 112.673C127.402 112.073 127.803 111.606 128.317 111.271C128.834 110.933 129.437 110.764 130.126 110.764C130.524 110.764 130.917 110.83 131.305 110.963C131.692 111.096 132.045 111.311 132.364 111.609C132.682 111.904 132.935 112.295 133.124 112.783C133.313 113.27 133.408 113.87 133.408 114.582V115.08H127.521V114.065H132.214C132.214 113.634 132.128 113.25 131.956 112.912C131.787 112.574 131.545 112.307 131.23 112.112C130.919 111.916 130.551 111.818 130.126 111.818C129.659 111.818 129.255 111.934 128.913 112.166C128.575 112.395 128.315 112.693 128.133 113.061C127.951 113.429 127.859 113.823 127.859 114.244V114.92C127.859 115.497 127.959 115.986 128.158 116.387C128.36 116.785 128.64 117.088 128.998 117.297C129.356 117.502 129.772 117.605 130.246 117.605C130.554 117.605 130.832 117.562 131.081 117.476C131.333 117.386 131.55 117.254 131.732 117.078C131.915 116.899 132.055 116.677 132.155 116.412L133.288 116.73C133.169 117.115 132.969 117.453 132.687 117.744C132.405 118.033 132.057 118.258 131.643 118.42C131.228 118.58 130.763 118.659 130.246 118.659Z"/>
<path d="M135.192 118.5V110.864H136.326V112.057H136.425C136.585 111.649 136.841 111.333 137.196 111.107C137.551 110.879 137.977 110.764 138.474 110.764C138.978 110.764 139.397 110.879 139.732 111.107C140.07 111.333 140.333 111.649 140.522 112.057H140.602C140.797 111.662 141.09 111.349 141.482 111.117C141.873 110.882 142.342 110.764 142.888 110.764C143.571 110.764 144.13 110.978 144.564 111.406C144.998 111.83 145.215 112.491 145.215 113.389V118.5H144.042V113.389C144.042 112.826 143.888 112.423 143.58 112.181C143.271 111.939 142.908 111.818 142.491 111.818C141.954 111.818 141.538 111.981 141.243 112.305C140.948 112.627 140.8 113.035 140.8 113.528V118.5H139.607V113.27C139.607 112.836 139.466 112.486 139.185 112.221C138.903 111.952 138.54 111.818 138.096 111.818C137.791 111.818 137.506 111.899 137.241 112.062C136.979 112.224 136.767 112.45 136.604 112.738C136.445 113.023 136.366 113.353 136.366 113.727V118.5H135.192Z"/>
<path d="M154.619 110.864V111.858H150.662V110.864H154.619ZM151.815 109.034H152.988V116.312C152.988 116.644 153.036 116.893 153.132 117.058C153.232 117.221 153.358 117.33 153.51 117.386C153.666 117.439 153.83 117.466 154.002 117.466C154.132 117.466 154.238 117.459 154.321 117.446C154.404 117.429 154.47 117.416 154.52 117.406L154.758 118.46C154.679 118.49 154.568 118.52 154.425 118.55C154.283 118.583 154.102 118.599 153.883 118.599C153.552 118.599 153.227 118.528 152.909 118.386C152.594 118.243 152.332 118.026 152.123 117.734C151.918 117.443 151.815 117.075 151.815 116.631V109.034Z"/>
<path d="M159.504 118.659C158.768 118.659 158.133 118.497 157.599 118.172C157.069 117.844 156.66 117.386 156.371 116.8C156.086 116.21 155.944 115.524 155.944 114.741C155.944 113.959 156.086 113.27 156.371 112.673C156.66 112.073 157.061 111.606 157.575 111.271C158.092 110.933 158.695 110.764 159.384 110.764C159.782 110.764 160.175 110.83 160.562 110.963C160.95 111.096 161.303 111.311 161.621 111.609C161.94 111.904 162.193 112.295 162.382 112.783C162.571 113.27 162.665 113.87 162.665 114.582V115.08H156.779V114.065H161.472C161.472 113.634 161.386 113.25 161.214 112.912C161.045 112.574 160.803 112.307 160.488 112.112C160.176 111.916 159.808 111.818 159.384 111.818C158.917 111.818 158.513 111.934 158.171 112.166C157.833 112.395 157.573 112.693 157.391 113.061C157.208 113.429 157.117 113.823 157.117 114.244V114.92C157.117 115.497 157.217 115.986 157.415 116.387C157.618 116.785 157.898 117.088 158.256 117.297C158.614 117.502 159.03 117.605 159.504 117.605C159.812 117.605 160.09 117.562 160.339 117.476C160.591 117.386 160.808 117.254 160.99 117.078C161.172 116.899 161.313 116.677 161.413 116.412L162.546 116.73C162.427 117.115 162.226 117.453 161.945 117.744C161.663 118.033 161.315 118.258 160.901 118.42C160.486 118.58 160.021 118.659 159.504 118.659Z"/>
<path d="M164.45 118.5V110.864H165.584V112.057H165.683C165.842 111.649 166.099 111.333 166.454 111.107C166.808 110.879 167.234 110.764 167.732 110.764C168.235 110.764 168.655 110.879 168.989 111.107C169.327 111.333 169.591 111.649 169.78 112.057H169.859C170.055 111.662 170.348 111.349 170.739 111.117C171.13 110.882 171.599 110.764 172.146 110.764C172.829 110.764 173.388 110.978 173.822 111.406C174.256 111.83 174.473 112.491 174.473 113.389V118.5H173.3V113.389C173.3 112.826 173.146 112.423 172.837 112.181C172.529 111.939 172.166 111.818 171.749 111.818C171.212 111.818 170.796 111.981 170.501 112.305C170.206 112.627 170.058 113.035 170.058 113.528V118.5H168.865V113.27C168.865 112.836 168.724 112.486 168.442 112.221C168.161 111.952 167.798 111.818 167.354 111.818C167.049 111.818 166.764 111.899 166.499 112.062C166.237 112.224 166.025 112.45 165.862 112.738C165.703 113.023 165.624 113.353 165.624 113.727V118.5H164.45Z"/>
<path d="M176.618 121.364V110.864H177.752V112.077H177.891C177.977 111.944 178.096 111.775 178.249 111.57C178.405 111.361 178.627 111.175 178.915 111.013C179.207 110.847 179.601 110.764 180.098 110.764C180.741 110.764 181.308 110.925 181.799 111.246C182.289 111.568 182.672 112.024 182.947 112.614C183.222 113.204 183.36 113.9 183.36 114.702C183.36 115.51 183.222 116.211 182.947 116.805C182.672 117.395 182.291 117.852 181.804 118.177C181.316 118.498 180.755 118.659 180.118 118.659C179.628 118.659 179.235 118.578 178.94 118.415C178.645 118.25 178.418 118.062 178.259 117.854C178.1 117.642 177.977 117.466 177.891 117.327H177.792V121.364H176.618ZM177.772 114.682C177.772 115.259 177.856 115.767 178.025 116.208C178.194 116.646 178.441 116.989 178.766 117.237C179.091 117.482 179.489 117.605 179.959 117.605C180.45 117.605 180.859 117.476 181.187 117.217C181.519 116.955 181.767 116.604 181.933 116.163C182.102 115.719 182.186 115.225 182.186 114.682C182.186 114.145 182.104 113.661 181.938 113.23C181.775 112.796 181.529 112.453 181.197 112.201C180.869 111.946 180.456 111.818 179.959 111.818C179.482 111.818 179.081 111.939 178.756 112.181C178.431 112.42 178.186 112.754 178.02 113.185C177.855 113.613 177.772 114.112 177.772 114.682Z"/>
<path d="M188.252 118.659C187.562 118.659 186.958 118.495 186.437 118.167C185.92 117.839 185.516 117.38 185.224 116.79C184.936 116.2 184.792 115.51 184.792 114.722C184.792 113.926 184.936 113.232 185.224 112.638C185.516 112.045 185.92 111.585 186.437 111.256C186.958 110.928 187.562 110.764 188.252 110.764C188.941 110.764 189.544 110.928 190.061 111.256C190.582 111.585 190.986 112.045 191.275 112.638C191.566 113.232 191.712 113.926 191.712 114.722C191.712 115.51 191.566 116.2 191.275 116.79C190.986 117.38 190.582 117.839 190.061 118.167C189.544 118.495 188.941 118.659 188.252 118.659ZM188.252 117.605C188.775 117.605 189.206 117.471 189.544 117.202C189.882 116.934 190.133 116.581 190.295 116.143C190.458 115.706 190.539 115.232 190.539 114.722C190.539 114.211 190.458 113.736 190.295 113.295C190.133 112.854 189.882 112.498 189.544 112.226C189.206 111.954 188.775 111.818 188.252 111.818C187.728 111.818 187.297 111.954 186.959 112.226C186.621 112.498 186.371 112.854 186.208 113.295C186.046 113.736 185.965 114.211 185.965 114.722C185.965 115.232 186.046 115.706 186.208 116.143C186.371 116.581 186.621 116.934 186.959 117.202C187.297 117.471 187.728 117.605 188.252 117.605Z"/>
<path d="M197.441 118.5V110.864H198.574V112.017H198.654C198.793 111.639 199.045 111.333 199.409 111.097C199.774 110.862 200.185 110.744 200.642 110.744C200.728 110.744 200.836 110.746 200.965 110.749C201.095 110.753 201.192 110.758 201.259 110.764V111.957C201.219 111.947 201.128 111.933 200.985 111.913C200.846 111.889 200.699 111.878 200.543 111.878C200.172 111.878 199.84 111.956 199.548 112.112C199.26 112.264 199.031 112.476 198.862 112.748C198.697 113.016 198.614 113.323 198.614 113.668V118.5H197.441Z"/>
<path d="M205.619 118.659C204.883 118.659 204.248 118.497 203.715 118.172C203.184 117.844 202.775 117.386 202.487 116.8C202.202 116.21 202.059 115.524 202.059 114.741C202.059 113.959 202.202 113.27 202.487 112.673C202.775 112.073 203.176 111.606 203.69 111.271C204.207 110.933 204.81 110.764 205.499 110.764C205.897 110.764 206.29 110.83 206.678 110.963C207.066 111.096 207.418 111.311 207.737 111.609C208.055 111.904 208.308 112.295 208.497 112.783C208.686 113.27 208.781 113.87 208.781 114.582V115.08H202.894V114.065H207.588C207.588 113.634 207.501 113.25 207.329 112.912C207.16 112.574 206.918 112.307 206.603 112.112C206.292 111.916 205.924 111.818 205.499 111.818C205.032 111.818 204.628 111.934 204.286 112.166C203.948 112.395 203.688 112.693 203.506 113.061C203.324 113.429 203.232 113.823 203.232 114.244V114.92C203.232 115.497 203.332 115.986 203.531 116.387C203.733 116.785 204.013 117.088 204.371 117.297C204.729 117.502 205.145 117.605 205.619 117.605C205.927 117.605 206.205 117.562 206.454 117.476C206.706 117.386 206.923 117.254 207.105 117.078C207.288 116.899 207.428 116.677 207.528 116.412L208.661 116.73C208.542 117.115 208.342 117.453 208.06 117.744C207.778 118.033 207.43 118.258 207.016 118.42C206.602 118.58 206.136 118.659 205.619 118.659Z"/>
<path d="M212.813 118.679C212.329 118.679 211.89 118.588 211.495 118.406C211.101 118.22 210.788 117.953 210.556 117.605C210.324 117.254 210.208 116.83 210.208 116.332C210.208 115.895 210.294 115.54 210.466 115.268C210.638 114.993 210.869 114.778 211.157 114.622C211.445 114.466 211.764 114.35 212.112 114.274C212.463 114.195 212.816 114.132 213.171 114.085C213.635 114.026 214.011 113.981 214.299 113.951C214.591 113.918 214.803 113.863 214.936 113.787C215.071 113.711 215.139 113.578 215.139 113.389V113.349C215.139 112.859 215.005 112.478 214.737 112.206C214.472 111.934 214.069 111.798 213.529 111.798C212.968 111.798 212.529 111.921 212.211 112.166C211.893 112.411 211.669 112.673 211.54 112.952L210.426 112.554C210.625 112.09 210.89 111.729 211.222 111.47C211.557 111.208 211.921 111.026 212.316 110.923C212.713 110.817 213.104 110.764 213.489 110.764C213.734 110.764 214.016 110.794 214.334 110.854C214.655 110.91 214.965 111.028 215.264 111.207C215.565 111.386 215.816 111.656 216.014 112.017C216.213 112.378 216.313 112.862 216.313 113.469V118.5H215.139V117.466H215.08C215 117.632 214.868 117.809 214.682 117.998C214.496 118.187 214.249 118.348 213.941 118.48C213.633 118.613 213.257 118.679 212.813 118.679ZM212.992 117.625C213.456 117.625 213.847 117.534 214.165 117.352C214.486 117.169 214.728 116.934 214.891 116.646C215.057 116.357 215.139 116.054 215.139 115.736V114.662C215.09 114.722 214.98 114.776 214.811 114.826C214.646 114.872 214.453 114.914 214.235 114.95C214.019 114.983 213.809 115.013 213.603 115.04C213.401 115.063 213.237 115.083 213.111 115.099C212.806 115.139 212.521 115.204 212.256 115.293C211.994 115.379 211.782 115.51 211.619 115.686C211.46 115.858 211.381 116.094 211.381 116.392C211.381 116.8 211.532 117.108 211.833 117.317C212.138 117.522 212.524 117.625 212.992 117.625Z"/>
<path d="M219.627 108.318V118.5H218.454V108.318H219.627Z"/>
</mask>
<path d="M6.00568 110.864C5.94602 110.36 5.70407 109.969 5.27983 109.69C4.85559 109.412 4.33523 109.273 3.71875 109.273C3.26799 109.273 2.87358 109.346 2.53551 109.491C2.20076 109.637 1.93892 109.838 1.75 110.093C1.56439 110.348 1.47159 110.638 1.47159 110.963C1.47159 111.235 1.53622 111.469 1.66548 111.664C1.79806 111.856 1.96709 112.017 2.17259 112.146C2.37808 112.272 2.59351 112.377 2.81889 112.46C3.04427 112.539 3.25142 112.604 3.44034 112.653L4.47443 112.932C4.73958 113.001 5.03456 113.098 5.35938 113.22C5.6875 113.343 6.00071 113.51 6.29901 113.722C6.60062 113.931 6.8492 114.2 7.04474 114.528C7.24029 114.856 7.33807 115.259 7.33807 115.736C7.33807 116.286 7.19389 116.783 6.90554 117.227C6.6205 117.671 6.20289 118.024 5.6527 118.286C5.10582 118.548 4.44129 118.679 3.65909 118.679C2.92992 118.679 2.29853 118.561 1.76491 118.326C1.23461 118.091 0.816998 117.763 0.512074 117.342C0.210464 116.921 0.0397727 116.432 0 115.875H1.27273C1.30587 116.259 1.43513 116.578 1.66051 116.83C1.8892 117.078 2.17756 117.264 2.52557 117.386C2.87689 117.506 3.25473 117.565 3.65909 117.565C4.12973 117.565 4.55232 117.489 4.92685 117.337C5.30137 117.181 5.59801 116.965 5.81676 116.69C6.03551 116.412 6.14489 116.087 6.14489 115.716C6.14489 115.378 6.05043 115.103 5.86151 114.891C5.67259 114.679 5.42401 114.506 5.11577 114.374C4.80753 114.241 4.47443 114.125 4.11648 114.026L2.86364 113.668C2.06818 113.439 1.43845 113.112 0.974432 112.688C0.510417 112.264 0.278409 111.709 0.278409 111.023C0.278409 110.453 0.432528 109.955 0.740767 109.531C1.05232 109.104 1.46993 108.772 1.99361 108.537C2.5206 108.298 3.1089 108.179 3.75852 108.179C4.41477 108.179 4.99811 108.297 5.50852 108.532C6.01894 108.764 6.4233 109.082 6.72159 109.487C7.0232 109.891 7.18229 110.35 7.19886 110.864H6.00568Z" stroke="#A1A1AA" stroke-width="2" mask="url(#path-4-inside-2_57_31)"/>
<path d="M9.20614 118.5V110.864H10.3794V118.5H9.20614ZM9.80273 109.591C9.57404 109.591 9.37683 109.513 9.21111 109.357C9.04871 109.201 8.96751 109.014 8.96751 108.795C8.96751 108.577 9.04871 108.389 9.21111 108.234C9.37683 108.078 9.57404 108 9.80273 108C10.0314 108 10.227 108.078 10.3894 108.234C10.5551 108.389 10.638 108.577 10.638 108.795C10.638 109.014 10.5551 109.201 10.3894 109.357C10.227 109.513 10.0314 109.591 9.80273 109.591Z" stroke="#A1A1AA" stroke-width="2" mask="url(#path-4-inside-2_57_31)"/>
<path d="M17.9375 112.574L16.8835 112.872C16.8172 112.696 16.7195 112.526 16.5902 112.36C16.4643 112.191 16.2919 112.052 16.0732 111.942C15.8544 111.833 15.5743 111.778 15.233 111.778C14.7656 111.778 14.3762 111.886 14.0646 112.102C13.7564 112.314 13.6023 112.584 13.6023 112.912C13.6023 113.204 13.7083 113.434 13.9205 113.603C14.1326 113.772 14.464 113.913 14.9148 114.026L16.0483 114.304C16.7311 114.47 17.2398 114.723 17.5746 115.065C17.9093 115.403 18.0767 115.839 18.0767 116.372C18.0767 116.81 17.9508 117.201 17.6989 117.545C17.4503 117.89 17.1023 118.162 16.6548 118.361C16.2074 118.56 15.687 118.659 15.0938 118.659C14.3149 118.659 13.6702 118.49 13.1598 118.152C12.6494 117.814 12.3262 117.32 12.1903 116.67L13.304 116.392C13.41 116.803 13.6106 117.111 13.9055 117.317C14.2038 117.522 14.5933 117.625 15.0739 117.625C15.6207 117.625 16.0549 117.509 16.3764 117.277C16.7012 117.042 16.8636 116.76 16.8636 116.432C16.8636 116.167 16.7708 115.945 16.5852 115.766C16.3996 115.583 16.1146 115.447 15.7301 115.358L14.4574 115.06C13.758 114.894 13.2443 114.637 12.9162 114.289C12.5914 113.938 12.429 113.499 12.429 112.972C12.429 112.541 12.55 112.16 12.7919 111.828C13.0372 111.497 13.3703 111.237 13.7912 111.048C14.2154 110.859 14.696 110.764 15.233 110.764C15.9886 110.764 16.5819 110.93 17.0128 111.261C17.447 111.593 17.7552 112.03 17.9375 112.574Z" stroke="#A1A1AA" stroke-width="2" mask="url(#path-4-inside-2_57_31)"/>
<path d="M23.1639 110.864V111.858H19.2065V110.864H23.1639ZM20.3599 109.034H21.5332V116.312C21.5332 116.644 21.5813 116.893 21.6774 117.058C21.7768 117.221 21.9028 117.33 22.0552 117.386C22.211 117.439 22.3751 117.466 22.5474 117.466C22.6767 117.466 22.7827 117.459 22.8656 117.446C22.9484 117.429 23.0147 117.416 23.0645 117.406L23.3031 118.46C23.2235 118.49 23.1125 118.52 22.97 118.55C22.8275 118.583 22.6468 118.599 22.4281 118.599C22.0966 118.599 21.7718 118.528 21.4537 118.386C21.1388 118.243 20.877 118.026 20.6681 117.734C20.4627 117.443 20.3599 117.075 20.3599 116.631V109.034Z" stroke="#A1A1AA" stroke-width="2" mask="url(#path-4-inside-2_57_31)"/>
<path d="M28.0485 118.659C27.3127 118.659 26.678 118.497 26.1444 118.172C25.6141 117.844 25.2047 117.386 24.9164 116.8C24.6313 116.21 24.4888 115.524 24.4888 114.741C24.4888 113.959 24.6313 113.27 24.9164 112.673C25.2047 112.073 25.6058 111.606 26.1195 111.271C26.6365 110.933 27.2398 110.764 27.9292 110.764C28.3269 110.764 28.7196 110.83 29.1074 110.963C29.4952 111.096 29.8482 111.311 30.1664 111.609C30.4846 111.904 30.7381 112.295 30.927 112.783C31.1159 113.27 31.2104 113.87 31.2104 114.582V115.08H25.324V114.065H30.0172C30.0172 113.634 29.931 113.25 29.7587 112.912C29.5897 112.574 29.3477 112.307 29.0328 112.112C28.7213 111.916 28.3534 111.818 27.9292 111.818C27.4618 111.818 27.0575 111.934 26.7161 112.166C26.378 112.395 26.1178 112.693 25.9355 113.061C25.7533 113.429 25.6621 113.823 25.6621 114.244V114.92C25.6621 115.497 25.7615 115.986 25.9604 116.387C26.1626 116.785 26.4426 117.088 26.8006 117.297C27.1586 117.502 27.5745 117.605 28.0485 117.605C28.3567 117.605 28.6351 117.562 28.8837 117.476C29.1356 117.386 29.3527 117.254 29.535 117.078C29.7173 116.899 29.8581 116.677 29.9576 116.412L31.0911 116.73C30.9718 117.115 30.7712 117.453 30.4895 117.744C30.2078 118.033 29.8598 118.258 29.4455 118.42C29.0312 118.58 28.5655 118.659 28.0485 118.659Z" stroke="#A1A1AA" stroke-width="2" mask="url(#path-4-inside-2_57_31)"/>
<path d="M32.9952 118.5V110.864H34.1287V112.057H34.2282C34.3873 111.649 34.6441 111.333 34.9988 111.107C35.3534 110.879 35.7793 110.764 36.2765 110.764C36.7802 110.764 37.1995 110.879 37.5343 111.107C37.8723 111.333 38.1358 111.649 38.3248 112.057H38.4043C38.5998 111.662 38.8932 111.349 39.2843 111.117C39.6754 110.882 40.1444 110.764 40.6912 110.764C41.374 110.764 41.9325 110.978 42.3667 111.406C42.8008 111.83 43.0179 112.491 43.0179 113.389V118.5H41.8446V113.389C41.8446 112.826 41.6905 112.423 41.3823 112.181C41.074 111.939 40.7111 111.818 40.2935 111.818C39.7566 111.818 39.3406 111.981 39.0456 112.305C38.7507 112.627 38.6032 113.035 38.6032 113.528V118.5H37.41V113.27C37.41 112.836 37.2691 112.486 36.9874 112.221C36.7057 111.952 36.3427 111.818 35.8986 111.818C35.5937 111.818 35.3087 111.899 35.0435 112.062C34.7817 112.224 34.5695 112.45 34.4071 112.738C34.248 113.023 34.1685 113.353 34.1685 113.727V118.5H32.9952Z" stroke="#A1A1AA" stroke-width="2" mask="url(#path-4-inside-2_57_31)"/>
<path d="M47.4103 118.679C46.9264 118.679 46.4873 118.588 46.0929 118.406C45.6984 118.22 45.3852 117.953 45.1532 117.605C44.9212 117.254 44.8052 116.83 44.8052 116.332C44.8052 115.895 44.8914 115.54 45.0637 115.268C45.2361 114.993 45.4664 114.778 45.7548 114.622C46.0431 114.466 46.3613 114.35 46.7093 114.274C47.0607 114.195 47.4136 114.132 47.7683 114.085C48.2323 114.026 48.6085 113.981 48.8968 113.951C49.1885 113.918 49.4006 113.863 49.5332 113.787C49.6691 113.711 49.737 113.578 49.737 113.389V113.349C49.737 112.859 49.6028 112.478 49.3343 112.206C49.0692 111.934 48.6665 111.798 48.1262 111.798C47.5661 111.798 47.127 111.921 46.8088 112.166C46.4906 112.411 46.2669 112.673 46.1376 112.952L45.024 112.554C45.2228 112.09 45.488 111.729 45.8194 111.47C46.1542 111.208 46.5188 111.026 46.9132 110.923C47.3109 110.817 47.702 110.764 48.0865 110.764C48.3317 110.764 48.6135 110.794 48.9316 110.854C49.2531 110.91 49.563 111.028 49.8613 111.207C50.1629 111.386 50.4132 111.656 50.612 112.017C50.8109 112.378 50.9103 112.862 50.9103 113.469V118.5H49.737V117.466H49.6774C49.5978 117.632 49.4653 117.809 49.2797 117.998C49.094 118.187 48.8471 118.348 48.5389 118.48C48.2306 118.613 47.8545 118.679 47.4103 118.679ZM47.5893 117.625C48.0533 117.625 48.4444 117.534 48.7626 117.352C49.0841 117.169 49.3261 116.934 49.4885 116.646C49.6542 116.357 49.737 116.054 49.737 115.736V114.662C49.6873 114.722 49.5779 114.776 49.4089 114.826C49.2432 114.872 49.051 114.914 48.8322 114.95C48.6168 114.983 48.4063 115.013 48.2008 115.04C47.9986 115.063 47.8346 115.083 47.7086 115.099C47.4037 115.139 47.1187 115.204 46.8535 115.293C46.5917 115.379 46.3796 115.51 46.2172 115.686C46.0581 115.858 45.9785 116.094 45.9785 116.392C45.9785 116.8 46.1293 117.108 46.4309 117.317C46.7359 117.522 47.122 117.625 47.5893 117.625Z" stroke="#A1A1AA" stroke-width="2" mask="url(#path-4-inside-2_57_31)"/>
<path d="M59.8729 118.659C59.2365 118.659 58.6747 118.498 58.1875 118.177C57.7003 117.852 57.3191 117.395 57.044 116.805C56.7689 116.211 56.6314 115.51 56.6314 114.702C56.6314 113.9 56.7689 113.204 57.044 112.614C57.3191 112.024 57.7019 111.568 58.1925 111.246C58.683 110.925 59.2498 110.764 59.8928 110.764C60.3899 110.764 60.7827 110.847 61.071 111.013C61.3627 111.175 61.5848 111.361 61.7372 111.57C61.893 111.775 62.014 111.944 62.1001 112.077H62.1996V108.318H63.3729V118.5H62.2393V117.327H62.1001C62.014 117.466 61.8913 117.642 61.7322 117.854C61.5732 118.062 61.3461 118.25 61.0511 118.415C60.7562 118.578 60.3634 118.659 59.8729 118.659ZM60.032 117.605C60.5026 117.605 60.9003 117.482 61.2251 117.237C61.55 116.989 61.7969 116.646 61.9659 116.208C62.1349 115.767 62.2195 115.259 62.2195 114.682C62.2195 114.112 62.1366 113.613 61.9709 113.185C61.8052 112.754 61.5599 112.42 61.2351 112.181C60.9103 111.939 60.5092 111.818 60.032 111.818C59.5348 111.818 59.1205 111.946 58.7891 112.201C58.4609 112.453 58.214 112.796 58.0483 113.23C57.8859 113.661 57.8047 114.145 57.8047 114.682C57.8047 115.225 57.8875 115.719 58.0533 116.163C58.2223 116.604 58.4709 116.955 58.799 117.217C59.1304 117.476 59.5414 117.605 60.032 117.605Z" stroke="#A1A1AA" stroke-width="2" mask="url(#path-4-inside-2_57_31)"/>
<path d="M68.8864 118.659C68.1506 118.659 67.5159 118.497 66.9822 118.172C66.4519 117.844 66.0426 117.386 65.7543 116.8C65.4692 116.21 65.3267 115.524 65.3267 114.741C65.3267 113.959 65.4692 113.27 65.7543 112.673C66.0426 112.073 66.4437 111.606 66.9574 111.271C67.4744 110.933 68.0777 110.764 68.767 110.764C69.1648 110.764 69.5575 110.83 69.9453 110.963C70.3331 111.096 70.6861 111.311 71.0043 111.609C71.3224 111.904 71.576 112.295 71.7649 112.783C71.9538 113.27 72.0483 113.87 72.0483 114.582V115.08H66.1619V114.065H70.8551C70.8551 113.634 70.7689 113.25 70.5966 112.912C70.4276 112.574 70.1856 112.307 69.8707 112.112C69.5592 111.916 69.1913 111.818 68.767 111.818C68.2997 111.818 67.8954 111.934 67.554 112.166C67.2159 112.395 66.9557 112.693 66.7734 113.061C66.5911 113.429 66.5 113.823 66.5 114.244V114.92C66.5 115.497 66.5994 115.986 66.7983 116.387C67.0005 116.785 67.2805 117.088 67.6385 117.297C67.9965 117.502 68.4124 117.605 68.8864 117.605C69.1946 117.605 69.473 117.562 69.7216 117.476C69.9735 117.386 70.1906 117.254 70.3729 117.078C70.5552 116.899 70.696 116.677 70.7955 116.412L71.929 116.73C71.8097 117.115 71.6091 117.453 71.3274 117.744C71.0457 118.033 70.6977 118.258 70.2834 118.42C69.8691 118.58 69.4034 118.659 68.8864 118.659Z" stroke="#A1A1AA" stroke-width="2" mask="url(#path-4-inside-2_57_31)"/>
<path d="M80.0178 118.679C79.5339 118.679 79.0947 118.588 78.7003 118.406C78.3059 118.22 77.9927 117.953 77.7607 117.605C77.5286 117.254 77.4126 116.83 77.4126 116.332C77.4126 115.895 77.4988 115.54 77.6712 115.268C77.8435 114.993 78.0739 114.778 78.3622 114.622C78.6506 114.466 78.9688 114.35 79.3168 114.274C79.6681 114.195 80.0211 114.132 80.3757 114.085C80.8397 114.026 81.2159 113.981 81.5043 113.951C81.7959 113.918 82.008 113.863 82.1406 113.787C82.2765 113.711 82.3445 113.578 82.3445 113.389V113.349C82.3445 112.859 82.2102 112.478 81.9418 112.206C81.6766 111.934 81.2739 111.798 80.7337 111.798C80.1735 111.798 79.7344 111.921 79.4162 112.166C79.098 112.411 78.8743 112.673 78.745 112.952L77.6314 112.554C77.8303 112.09 78.0954 111.729 78.4268 111.47C78.7616 111.208 79.1262 111.026 79.5206 110.923C79.9183 110.817 80.3094 110.764 80.6939 110.764C80.9392 110.764 81.2209 110.794 81.5391 110.854C81.8606 110.91 82.1705 111.028 82.4688 111.207C82.7704 111.386 83.0206 111.656 83.2195 112.017C83.4183 112.378 83.5178 112.862 83.5178 113.469V118.5H82.3445V117.466H82.2848C82.2053 117.632 82.0727 117.809 81.8871 117.998C81.7015 118.187 81.4545 118.348 81.1463 118.48C80.8381 118.613 80.4619 118.679 80.0178 118.679ZM80.1967 117.625C80.6607 117.625 81.0518 117.534 81.37 117.352C81.6915 117.169 81.9335 116.934 82.0959 116.646C82.2616 116.357 82.3445 116.054 82.3445 115.736V114.662C82.2947 114.722 82.1854 114.776 82.0163 114.826C81.8506 114.872 81.6584 114.914 81.4396 114.95C81.2242 114.983 81.0137 115.013 80.8082 115.04C80.6061 115.063 80.442 115.083 80.316 115.099C80.0111 115.139 79.7261 115.204 79.4609 115.293C79.1991 115.379 78.987 115.51 78.8246 115.686C78.6655 115.858 78.5859 116.094 78.5859 116.392C78.5859 116.8 78.7367 117.108 79.0384 117.317C79.3433 117.522 79.7294 117.625 80.1967 117.625Z" stroke="#A1A1AA" stroke-width="2" mask="url(#path-4-inside-2_57_31)"/>
<path d="M86.8326 108.318V118.5H85.6593V108.318H86.8326Z" stroke="#A1A1AA" stroke-width="2" mask="url(#path-4-inside-2_57_31)"/>
<path d="M92.1832 118.659C91.4474 118.659 90.8127 118.497 90.2791 118.172C89.7488 117.844 89.3395 117.386 89.0511 116.8C88.7661 116.21 88.6236 115.524 88.6236 114.741C88.6236 113.959 88.7661 113.27 89.0511 112.673C89.3395 112.073 89.7405 111.606 90.2543 111.271C90.7713 110.933 91.3745 110.764 92.0639 110.764C92.4616 110.764 92.8544 110.83 93.2422 110.963C93.63 111.096 93.983 111.311 94.3011 111.609C94.6193 111.904 94.8729 112.295 95.0618 112.783C95.2507 113.27 95.3452 113.87 95.3452 114.582V115.08H89.4588V114.065H94.152C94.152 113.634 94.0658 113.25 93.8935 112.912C93.7244 112.574 93.4825 112.307 93.1676 112.112C92.8561 111.916 92.4882 111.818 92.0639 111.818C91.5966 111.818 91.1922 111.934 90.8509 112.166C90.5128 112.395 90.2526 112.693 90.0703 113.061C89.888 113.429 89.7969 113.823 89.7969 114.244V114.92C89.7969 115.497 89.8963 115.986 90.0952 116.387C90.2973 116.785 90.5774 117.088 90.9354 117.297C91.2933 117.502 91.7093 117.605 92.1832 117.605C92.4915 117.605 92.7699 117.562 93.0185 117.476C93.2704 117.386 93.4875 117.254 93.6697 117.078C93.852 116.899 93.9929 116.677 94.0923 116.412L95.2259 116.73C95.1065 117.115 94.906 117.453 94.6243 117.744C94.3426 118.033 93.9946 118.258 93.5803 118.42C93.166 118.58 92.7003 118.659 92.1832 118.659Z" stroke="#A1A1AA" stroke-width="2" mask="url(#path-4-inside-2_57_31)"/>
<path d="M97.13 118.5V110.864H98.2635V112.017H98.343C98.4822 111.639 98.7341 111.333 99.0987 111.097C99.4633 110.862 99.8743 110.744 100.332 110.744C100.418 110.744 100.526 110.746 100.655 110.749C100.784 110.753 100.882 110.758 100.948 110.764V111.957C100.908 111.947 100.817 111.933 100.675 111.913C100.536 111.889 100.388 111.878 100.232 111.878C99.861 111.878 99.5296 111.956 99.2379 112.112C98.9496 112.264 98.7209 112.476 98.5518 112.748C98.3861 113.016 98.3033 113.323 98.3033 113.668V118.5H97.13Z" stroke="#A1A1AA" stroke-width="2" mask="url(#path-4-inside-2_57_31)"/>
<path d="M106.138 110.864V111.858H102.181V110.864H106.138ZM103.335 109.034H104.508V116.312C104.508 116.644 104.556 116.893 104.652 117.058C104.751 117.221 104.877 117.33 105.03 117.386C105.186 117.439 105.35 117.466 105.522 117.466C105.651 117.466 105.757 117.459 105.84 117.446C105.923 117.429 105.989 117.416 106.039 117.406L106.278 118.46C106.198 118.49 106.087 118.52 105.945 118.55C105.802 118.583 105.621 118.599 105.403 118.599C105.071 118.599 104.746 118.528 104.428 118.386C104.113 118.243 103.852 118.026 103.643 117.734C103.437 117.443 103.335 117.075 103.335 116.631V109.034Z" stroke="#A1A1AA" stroke-width="2" mask="url(#path-4-inside-2_57_31)"/>
<path d="M110.151 118.679C109.667 118.679 109.228 118.588 108.833 118.406C108.439 118.22 108.125 117.953 107.893 117.605C107.661 117.254 107.545 116.83 107.545 116.332C107.545 115.895 107.632 115.54 107.804 115.268C107.976 114.993 108.207 114.778 108.495 114.622C108.783 114.466 109.102 114.35 109.45 114.274C109.801 114.195 110.154 114.132 110.509 114.085C110.973 114.026 111.349 113.981 111.637 113.951C111.929 113.918 112.141 113.863 112.273 113.787C112.409 113.711 112.477 113.578 112.477 113.389V113.349C112.477 112.859 112.343 112.478 112.075 112.206C111.809 111.934 111.407 111.798 110.866 111.798C110.306 111.798 109.867 111.921 109.549 112.166C109.231 112.411 109.007 112.673 108.878 112.952L107.764 112.554C107.963 112.09 108.228 111.729 108.56 111.47C108.894 111.208 109.259 111.026 109.653 110.923C110.051 110.817 110.442 110.764 110.827 110.764C111.072 110.764 111.354 110.794 111.672 110.854C111.993 110.91 112.303 111.028 112.602 111.207C112.903 111.386 113.153 111.656 113.352 112.017C113.551 112.378 113.651 112.862 113.651 113.469V118.5H112.477V117.466H112.418C112.338 117.632 112.205 117.809 112.02 117.998C111.834 118.187 111.587 118.348 111.279 118.48C110.971 118.613 110.595 118.679 110.151 118.679ZM110.33 117.625C110.794 117.625 111.185 117.534 111.503 117.352C111.824 117.169 112.066 116.934 112.229 116.646C112.394 116.357 112.477 116.054 112.477 115.736V114.662C112.428 114.722 112.318 114.776 112.149 114.826C111.983 114.872 111.791 114.914 111.572 114.95C111.357 114.983 111.147 115.013 110.941 115.04C110.739 115.063 110.575 115.083 110.449 115.099C110.144 115.139 109.859 115.204 109.594 115.293C109.332 115.379 109.12 115.51 108.957 115.686C108.798 115.858 108.719 116.094 108.719 116.392C108.719 116.8 108.87 117.108 109.171 117.317C109.476 117.522 109.862 117.625 110.33 117.625Z" stroke="#A1A1AA" stroke-width="2" mask="url(#path-4-inside-2_57_31)"/>
<path d="M121.201 112.574L120.147 112.872C120.081 112.696 119.983 112.526 119.854 112.36C119.728 112.191 119.556 112.052 119.337 111.942C119.118 111.833 118.838 111.778 118.497 111.778C118.029 111.778 117.64 111.886 117.328 112.102C117.02 112.314 116.866 112.584 116.866 112.912C116.866 113.204 116.972 113.434 117.184 113.603C117.396 113.772 117.728 113.913 118.178 114.026L119.312 114.304C119.995 114.47 120.503 114.723 120.838 115.065C121.173 115.403 121.34 115.839 121.34 116.372C121.34 116.81 121.214 117.201 120.963 117.545C120.714 117.89 120.366 118.162 119.919 118.361C119.471 118.56 118.951 118.659 118.357 118.659C117.579 118.659 116.934 118.49 116.423 118.152C115.913 117.814 115.59 117.32 115.454 116.67L116.568 116.392C116.674 116.803 116.874 117.111 117.169 117.317C117.468 117.522 117.857 117.625 118.338 117.625C118.884 117.625 119.319 117.509 119.64 117.277C119.965 117.042 120.127 116.76 120.127 116.432C120.127 116.167 120.035 115.945 119.849 115.766C119.663 115.583 119.378 115.447 118.994 115.358L117.721 115.06C117.022 114.894 116.508 114.637 116.18 114.289C115.855 113.938 115.693 113.499 115.693 112.972C115.693 112.541 115.814 112.16 116.056 111.828C116.301 111.497 116.634 111.237 117.055 111.048C117.479 110.859 117.96 110.764 118.497 110.764C119.252 110.764 119.846 110.93 120.276 111.261C120.711 111.593 121.019 112.03 121.201 112.574Z" stroke="#A1A1AA" stroke-width="2" mask="url(#path-4-inside-2_57_31)"/>
<path d="M130.246 118.659C129.51 118.659 128.875 118.497 128.342 118.172C127.811 117.844 127.402 117.386 127.114 116.8C126.829 116.21 126.686 115.524 126.686 114.741C126.686 113.959 126.829 113.27 127.114 112.673C127.402 112.073 127.803 111.606 128.317 111.271C128.834 110.933 129.437 110.764 130.126 110.764C130.524 110.764 130.917 110.83 131.305 110.963C131.692 111.096 132.045 111.311 132.364 111.609C132.682 111.904 132.935 112.295 133.124 112.783C133.313 113.27 133.408 113.87 133.408 114.582V115.08H127.521V114.065H132.214C132.214 113.634 132.128 113.25 131.956 112.912C131.787 112.574 131.545 112.307 131.23 112.112C130.919 111.916 130.551 111.818 130.126 111.818C129.659 111.818 129.255 111.934 128.913 112.166C128.575 112.395 128.315 112.693 128.133 113.061C127.951 113.429 127.859 113.823 127.859 114.244V114.92C127.859 115.497 127.959 115.986 128.158 116.387C128.36 116.785 128.64 117.088 128.998 117.297C129.356 117.502 129.772 117.605 130.246 117.605C130.554 117.605 130.832 117.562 131.081 117.476C131.333 117.386 131.55 117.254 131.732 117.078C131.915 116.899 132.055 116.677 132.155 116.412L133.288 116.73C133.169 117.115 132.969 117.453 132.687 117.744C132.405 118.033 132.057 118.258 131.643 118.42C131.228 118.58 130.763 118.659 130.246 118.659Z" stroke="#A1A1AA" stroke-width="2" mask="url(#path-4-inside-2_57_31)"/>
<path d="M135.192 118.5V110.864H136.326V112.057H136.425C136.585 111.649 136.841 111.333 137.196 111.107C137.551 110.879 137.977 110.764 138.474 110.764C138.978 110.764 139.397 110.879 139.732 111.107C140.07 111.333 140.333 111.649 140.522 112.057H140.602C140.797 111.662 141.09 111.349 141.482 111.117C141.873 110.882 142.342 110.764 142.888 110.764C143.571 110.764 144.13 110.978 144.564 111.406C144.998 111.83 145.215 112.491 145.215 113.389V118.5H144.042V113.389C144.042 112.826 143.888 112.423 143.58 112.181C143.271 111.939 142.908 111.818 142.491 111.818C141.954 111.818 141.538 111.981 141.243 112.305C140.948 112.627 140.8 113.035 140.8 113.528V118.5H139.607V113.27C139.607 112.836 139.466 112.486 139.185 112.221C138.903 111.952 138.54 111.818 138.096 111.818C137.791 111.818 137.506 111.899 137.241 112.062C136.979 112.224 136.767 112.45 136.604 112.738C136.445 113.023 136.366 113.353 136.366 113.727V118.5H135.192Z" stroke="#A1A1AA" stroke-width="2" mask="url(#path-4-inside-2_57_31)"/>
<path d="M154.619 110.864V111.858H150.662V110.864H154.619ZM151.815 109.034H152.988V116.312C152.988 116.644 153.036 116.893 153.132 117.058C153.232 117.221 153.358 117.33 153.51 117.386C153.666 117.439 153.83 117.466 154.002 117.466C154.132 117.466 154.238 117.459 154.321 117.446C154.404 117.429 154.47 117.416 154.52 117.406L154.758 118.46C154.679 118.49 154.568 118.52 154.425 118.55C154.283 118.583 154.102 118.599 153.883 118.599C153.552 118.599 153.227 118.528 152.909 118.386C152.594 118.243 152.332 118.026 152.123 117.734C151.918 117.443 151.815 117.075 151.815 116.631V109.034Z" stroke="#A1A1AA" stroke-width="2" mask="url(#path-4-inside-2_57_31)"/>
<path d="M159.504 118.659C158.768 118.659 158.133 118.497 157.599 118.172C157.069 117.844 156.66 117.386 156.371 116.8C156.086 116.21 155.944 115.524 155.944 114.741C155.944 113.959 156.086 113.27 156.371 112.673C156.66 112.073 157.061 111.606 157.575 111.271C158.092 110.933 158.695 110.764 159.384 110.764C159.782 110.764 160.175 110.83 160.562 110.963C160.95 111.096 161.303 111.311 161.621 111.609C161.94 111.904 162.193 112.295 162.382 112.783C162.571 113.27 162.665 113.87 162.665 114.582V115.08H156.779V114.065H161.472C161.472 113.634 161.386 113.25 161.214 112.912C161.045 112.574 160.803 112.307 160.488 112.112C160.176 111.916 159.808 111.818 159.384 111.818C158.917 111.818 158.513 111.934 158.171 112.166C157.833 112.395 157.573 112.693 157.391 113.061C157.208 113.429 157.117 113.823 157.117 114.244V114.92C157.117 115.497 157.217 115.986 157.415 116.387C157.618 116.785 157.898 117.088 158.256 117.297C158.614 117.502 159.03 117.605 159.504 117.605C159.812 117.605 160.09 117.562 160.339 117.476C160.591 117.386 160.808 117.254 160.99 117.078C161.172 116.899 161.313 116.677 161.413 116.412L162.546 116.73C162.427 117.115 162.226 117.453 161.945 117.744C161.663 118.033 161.315 118.258 160.901 118.42C160.486 118.58 160.021 118.659 159.504 118.659Z" stroke="#A1A1AA" stroke-width="2" mask="url(#path-4-inside-2_57_31)"/>
<path d="M164.45 118.5V110.864H165.584V112.057H165.683C165.842 111.649 166.099 111.333 166.454 111.107C166.808 110.879 167.234 110.764 167.732 110.764C168.235 110.764 168.655 110.879 168.989 111.107C169.327 111.333 169.591 111.649 169.78 112.057H169.859C170.055 111.662 170.348 111.349 170.739 111.117C171.13 110.882 171.599 110.764 172.146 110.764C172.829 110.764 173.388 110.978 173.822 111.406C174.256 111.83 174.473 112.491 174.473 113.389V118.5H173.3V113.389C173.3 112.826 173.146 112.423 172.837 112.181C172.529 111.939 172.166 111.818 171.749 111.818C171.212 111.818 170.796 111.981 170.501 112.305C170.206 112.627 170.058 113.035 170.058 113.528V118.5H168.865V113.27C168.865 112.836 168.724 112.486 168.442 112.221C168.161 111.952 167.798 111.818 167.354 111.818C167.049 111.818 166.764 111.899 166.499 112.062C166.237 112.224 166.025 112.45 165.862 112.738C165.703 113.023 165.624 113.353 165.624 113.727V118.5H164.45Z" stroke="#A1A1AA" stroke-width="2" mask="url(#path-4-inside-2_57_31)"/>
<path d="M176.618 121.364V110.864H177.752V112.077H177.891C177.977 111.944 178.096 111.775 178.249 111.57C178.405 111.361 178.627 111.175 178.915 111.013C179.207 110.847 179.601 110.764 180.098 110.764C180.741 110.764 181.308 110.925 181.799 111.246C182.289 111.568 182.672 112.024 182.947 112.614C183.222 113.204 183.36 113.9 183.36 114.702C183.36 115.51 183.222 116.211 182.947 116.805C182.672 117.395 182.291 117.852 181.804 118.177C181.316 118.498 180.755 118.659 180.118 118.659C179.628 118.659 179.235 118.578 178.94 118.415C178.645 118.25 178.418 118.062 178.259 117.854C178.1 117.642 177.977 117.466 177.891 117.327H177.792V121.364H176.618ZM177.772 114.682C177.772 115.259 177.856 115.767 178.025 116.208C178.194 116.646 178.441 116.989 178.766 117.237C179.091 117.482 179.489 117.605 179.959 117.605C180.45 117.605 180.859 117.476 181.187 117.217C181.519 116.955 181.767 116.604 181.933 116.163C182.102 115.719 182.186 115.225 182.186 114.682C182.186 114.145 182.104 113.661 181.938 113.23C181.775 112.796 181.529 112.453 181.197 112.201C180.869 111.946 180.456 111.818 179.959 111.818C179.482 111.818 179.081 111.939 178.756 112.181C178.431 112.42 178.186 112.754 178.02 113.185C177.855 113.613 177.772 114.112 177.772 114.682Z" stroke="#A1A1AA" stroke-width="2" mask="url(#path-4-inside-2_57_31)"/>
<path d="M188.252 118.659C187.562 118.659 186.958 118.495 186.437 118.167C185.92 117.839 185.516 117.38 185.224 116.79C184.936 116.2 184.792 115.51 184.792 114.722C184.792 113.926 184.936 113.232 185.224 112.638C185.516 112.045 185.92 111.585 186.437 111.256C186.958 110.928 187.562 110.764 188.252 110.764C188.941 110.764 189.544 110.928 190.061 111.256C190.582 111.585 190.986 112.045 191.275 112.638C191.566 113.232 191.712 113.926 191.712 114.722C191.712 115.51 191.566 116.2 191.275 116.79C190.986 117.38 190.582 117.839 190.061 118.167C189.544 118.495 188.941 118.659 188.252 118.659ZM188.252 117.605C188.775 117.605 189.206 117.471 189.544 117.202C189.882 116.934 190.133 116.581 190.295 116.143C190.458 115.706 190.539 115.232 190.539 114.722C190.539 114.211 190.458 113.736 190.295 113.295C190.133 112.854 189.882 112.498 189.544 112.226C189.206 111.954 188.775 111.818 188.252 111.818C187.728 111.818 187.297 111.954 186.959 112.226C186.621 112.498 186.371 112.854 186.208 113.295C186.046 113.736 185.965 114.211 185.965 114.722C185.965 115.232 186.046 115.706 186.208 116.143C186.371 116.581 186.621 116.934 186.959 117.202C187.297 117.471 187.728 117.605 188.252 117.605Z" stroke="#A1A1AA" stroke-width="2" mask="url(#path-4-inside-2_57_31)"/>
<path d="M197.441 118.5V110.864H198.574V112.017H198.654C198.793 111.639 199.045 111.333 199.409 111.097C199.774 110.862 200.185 110.744 200.642 110.744C200.728 110.744 200.836 110.746 200.965 110.749C201.095 110.753 201.192 110.758 201.259 110.764V111.957C201.219 111.947 201.128 111.933 200.985 111.913C200.846 111.889 200.699 111.878 200.543 111.878C200.172 111.878 199.84 111.956 199.548 112.112C199.26 112.264 199.031 112.476 198.862 112.748C198.697 113.016 198.614 113.323 198.614 113.668V118.5H197.441Z" stroke="#A1A1AA" stroke-width="2" mask="url(#path-4-inside-2_57_31)"/>
<path d="M205.619 118.659C204.883 118.659 204.248 118.497 203.715 118.172C203.184 117.844 202.775 117.386 202.487 116.8C202.202 116.21 202.059 115.524 202.059 114.741C202.059 113.959 202.202 113.27 202.487 112.673C202.775 112.073 203.176 111.606 203.69 111.271C204.207 110.933 204.81 110.764 205.499 110.764C205.897 110.764 206.29 110.83 206.678 110.963C207.066 111.096 207.418 111.311 207.737 111.609C208.055 111.904 208.308 112.295 208.497 112.783C208.686 113.27 208.781 113.87 208.781 114.582V115.08H202.894V114.065H207.588C207.588 113.634 207.501 113.25 207.329 112.912C207.16 112.574 206.918 112.307 206.603 112.112C206.292 111.916 205.924 111.818 205.499 111.818C205.032 111.818 204.628 111.934 204.286 112.166C203.948 112.395 203.688 112.693 203.506 113.061C203.324 113.429 203.232 113.823 203.232 114.244V114.92C203.232 115.497 203.332 115.986 203.531 116.387C203.733 116.785 204.013 117.088 204.371 117.297C204.729 117.502 205.145 117.605 205.619 117.605C205.927 117.605 206.205 117.562 206.454 117.476C206.706 117.386 206.923 117.254 207.105 117.078C207.288 116.899 207.428 116.677 207.528 116.412L208.661 116.73C208.542 117.115 208.342 117.453 208.06 117.744C207.778 118.033 207.43 118.258 207.016 118.42C206.602 118.58 206.136 118.659 205.619 118.659Z" stroke="#A1A1AA" stroke-width="2" mask="url(#path-4-inside-2_57_31)"/>
<path d="M212.813 118.679C212.329 118.679 211.89 118.588 211.495 118.406C211.101 118.22 210.788 117.953 210.556 117.605C210.324 117.254 210.208 116.83 210.208 116.332C210.208 115.895 210.294 115.54 210.466 115.268C210.638 114.993 210.869 114.778 211.157 114.622C211.445 114.466 211.764 114.35 212.112 114.274C212.463 114.195 212.816 114.132 213.171 114.085C213.635 114.026 214.011 113.981 214.299 113.951C214.591 113.918 214.803 113.863 214.936 113.787C215.071 113.711 215.139 113.578 215.139 113.389V113.349C215.139 112.859 215.005 112.478 214.737 112.206C214.472 111.934 214.069 111.798 213.529 111.798C212.968 111.798 212.529 111.921 212.211 112.166C211.893 112.411 211.669 112.673 211.54 112.952L210.426 112.554C210.625 112.09 210.89 111.729 211.222 111.47C211.557 111.208 211.921 111.026 212.316 110.923C212.713 110.817 213.104 110.764 213.489 110.764C213.734 110.764 214.016 110.794 214.334 110.854C214.655 110.91 214.965 111.028 215.264 111.207C215.565 111.386 215.816 111.656 216.014 112.017C216.213 112.378 216.313 112.862 216.313 113.469V118.5H215.139V117.466H215.08C215 117.632 214.868 117.809 214.682 117.998C214.496 118.187 214.249 118.348 213.941 118.48C213.633 118.613 213.257 118.679 212.813 118.679ZM212.992 117.625C213.456 117.625 213.847 117.534 214.165 117.352C214.486 117.169 214.728 116.934 214.891 116.646C215.057 116.357 215.139 116.054 215.139 115.736V114.662C215.09 114.722 214.98 114.776 214.811 114.826C214.646 114.872 214.453 114.914 214.235 114.95C214.019 114.983 213.809 115.013 213.603 115.04C213.401 115.063 213.237 115.083 213.111 115.099C212.806 115.139 212.521 115.204 212.256 115.293C211.994 115.379 211.782 115.51 211.619 115.686C211.46 115.858 211.381 116.094 211.381 116.392C211.381 116.8 211.532 117.108 211.833 117.317C212.138 117.522 212.524 117.625 212.992 117.625Z" stroke="#A1A1AA" stroke-width="2" mask="url(#path-4-inside-2_57_31)"/>
<path d="M219.627 108.318V118.5H218.454V108.318H219.627Z" stroke="#A1A1AA" stroke-width="2" mask="url(#path-4-inside-2_57_31)"/>
<defs>
<filter id="filter0_d_57_31" x="57.8137" y="0" width="104" height="104" filterUnits="userSpaceOnUse" color-interpolation-filters="sRGB">
<feFlood flood-opacity="0" result="BackgroundImageFix"/>
<feColorMatrix in="SourceAlpha" type="matrix" values="0 0 0 0 0 0 0 0 0 0 0 0 0 0 0 0 0 0 127 0" result="hardAlpha"/>
<feMorphology radius="5" operator="erode" in="SourceAlpha" result="effect1_dropShadow_57_31"/>
<feOffset dy="20"/>
<feGaussianBlur stdDeviation="12.5"/>
<feComposite in2="hardAlpha" operator="out"/>
<feColorMatrix type="matrix" values="0 0 0 0 0.388235 0 0 0 0 0.4 0 0 0 0 0.945098 0 0 0 0.3 0"/>
<feBlend mode="normal" in2="BackgroundImageFix" result="effect1_dropShadow_57_31"/>
<feBlend mode="normal" in="SourceGraphic" in2="effect1_dropShadow_57_31" result="shape"/>
</filter>
</defs>
</svg>
