<svg width="107" height="16" viewBox="0 0 107 16" fill="none" xmlns="http://www.w3.org/2000/svg">
<path d="M2.66662 9.33328C2.54046 9.33371 2.41677 9.29833 2.30992 9.23126C2.20307 9.16419 2.11744 9.06818 2.06299 8.95438C2.00853 8.84058 1.98748 8.71367 2.00229 8.58838C2.01709 8.4631 2.06714 8.34458 2.14662 8.24661L8.74662 1.44661C8.79613 1.38947 8.86359 1.35085 8.93794 1.3371C9.01229 1.32335 9.0891 1.33529 9.15577 1.37095C9.22245 1.40661 9.27501 1.46388 9.30484 1.53335C9.33468 1.60283 9.34001 1.68038 9.31995 1.75328L8.03995 5.76661C8.00221 5.86763 7.98954 5.97629 8.00302 6.08328C8.01649 6.19027 8.05573 6.2924 8.11735 6.3809C8.17897 6.46939 8.26114 6.54162 8.3568 6.59139C8.45247 6.64115 8.55878 6.66696 8.66662 6.66661H13.3333C13.4594 6.66618 13.5831 6.70156 13.69 6.76863C13.7968 6.8357 13.8825 6.93171 13.9369 7.04551C13.9914 7.15931 14.0124 7.28622 13.9976 7.41151C13.9828 7.53679 13.9328 7.65531 13.8533 7.75328L7.25329 14.5533C7.20378 14.6104 7.13631 14.649 7.06197 14.6628C6.98762 14.6765 6.9108 14.6646 6.84413 14.6289C6.77746 14.5933 6.7249 14.536 6.69506 14.4665C6.66523 14.3971 6.6599 14.3195 6.67995 14.2466L7.95995 10.2333C7.9977 10.1323 8.01037 10.0236 7.99689 9.91661C7.98341 9.80962 7.94418 9.70749 7.88256 9.61899C7.82094 9.5305 7.73877 9.45827 7.6431 9.40851C7.54744 9.35874 7.44112 9.33293 7.33329 9.33328H2.66662Z" stroke="#3A13E7" stroke-linecap="round" stroke-linejoin="round"/>
<mask id="path-2-inside-1_52_31" fill="white">
<path d="M24 3.69607H25.2614L28.2273 10.9404H28.3295L31.2955 3.69607H32.5568V12.4233H31.5682V5.79266H31.483L28.7557 12.4233H27.8011L25.0739 5.79266H24.9886V12.4233H24V3.69607Z"/>
<path d="M37.1985 12.5597C36.6076 12.5597 36.0891 12.4191 35.6431 12.1378C35.1999 11.8566 34.8533 11.4631 34.6033 10.9574C34.3562 10.4517 34.2326 9.86084 34.2326 9.1847C34.2326 8.50289 34.3562 7.90771 34.6033 7.39919C34.8533 6.89067 35.1999 6.49578 35.6431 6.21453C36.0891 5.93328 36.6076 5.79266 37.1985 5.79266C37.7894 5.79266 38.3065 5.93328 38.7496 6.21453C39.1957 6.49578 39.5423 6.89067 39.7894 7.39919C40.0394 7.90771 40.1644 8.50289 40.1644 9.1847C40.1644 9.86084 40.0394 10.4517 39.7894 10.9574C39.5423 11.4631 39.1957 11.8566 38.7496 12.1378C38.3065 12.4191 37.7894 12.5597 37.1985 12.5597ZM37.1985 11.6563C37.6474 11.6563 38.0167 11.5412 38.3065 11.3111C38.5962 11.081 38.8107 10.7785 38.9499 10.4035C39.0891 10.0285 39.1587 9.6222 39.1587 9.1847C39.1587 8.7472 39.0891 8.33953 38.9499 7.96169C38.8107 7.58385 38.5962 7.27845 38.3065 7.0455C38.0167 6.81254 37.6474 6.69607 37.1985 6.69607C36.7496 6.69607 36.3803 6.81254 36.0906 7.0455C35.8008 7.27845 35.5863 7.58385 35.4471 7.96169C35.3079 8.33953 35.2383 8.7472 35.2383 9.1847C35.2383 9.6222 35.3079 10.0285 35.4471 10.4035C35.5863 10.7785 35.8008 11.081 36.0906 11.3111C36.3803 11.5412 36.7496 11.6563 37.1985 11.6563Z"/>
<path d="M41.8359 12.4233V3.69607H42.8416V6.91766H42.9268C43.0007 6.80402 43.103 6.65914 43.2337 6.483C43.3672 6.30402 43.5575 6.14493 43.8047 6.00573C44.0547 5.86368 44.3928 5.79266 44.8189 5.79266C45.37 5.79266 45.8558 5.93044 46.2763 6.20601C46.6967 6.48158 47.0249 6.8722 47.2607 7.37789C47.4964 7.88357 47.6143 8.48016 47.6143 9.16766C47.6143 9.86084 47.4964 10.4617 47.2607 10.9702C47.0249 11.4759 46.6982 11.8679 46.2805 12.1464C45.8629 12.4219 45.3814 12.5597 44.8359 12.5597C44.4155 12.5597 44.0788 12.4901 43.826 12.3509C43.5732 12.2089 43.3786 12.0483 43.2422 11.8694C43.1058 11.6875 43.0007 11.537 42.9268 11.4177H42.8075V12.4233H41.8359ZM42.8246 9.15061C42.8246 9.64493 42.897 10.081 43.0419 10.4589C43.1868 10.8339 43.3984 11.1279 43.6768 11.341C43.9553 11.5512 44.2962 11.6563 44.6996 11.6563C45.12 11.6563 45.4709 11.5455 45.7521 11.3239C46.0362 11.0995 46.2493 10.7983 46.3913 10.4205C46.5362 10.0398 46.6087 9.61652 46.6087 9.15061C46.6087 8.69039 46.5376 8.27561 46.3956 7.90629C46.2564 7.53414 46.0447 7.2401 45.7607 7.02419C45.4794 6.80544 45.1257 6.69607 44.6996 6.69607C44.2905 6.69607 43.9467 6.79976 43.6683 7.00715C43.3899 7.21169 43.1797 7.49862 43.0376 7.86794C42.8956 8.23442 42.8246 8.66198 42.8246 9.15061Z"/>
<path d="M49.1527 12.4233V5.87789H50.1584V12.4233H49.1527ZM49.6641 4.78698C49.468 4.78698 49.299 4.72021 49.157 4.58669C49.0178 4.45317 48.9482 4.29266 48.9482 4.10516C48.9482 3.91766 49.0178 3.75715 49.157 3.62362C49.299 3.4901 49.468 3.42334 49.6641 3.42334C49.8601 3.42334 50.0277 3.4901 50.1669 3.62362C50.3089 3.75715 50.38 3.91766 50.38 4.10516C50.38 4.29266 50.3089 4.45317 50.1669 4.58669C50.0277 4.72021 49.8601 4.78698 49.6641 4.78698Z"/>
<path d="M53.006 3.69607V12.4233H52.0004V3.69607H53.006Z"/>
<path d="M57.5923 12.5597C56.9616 12.5597 56.4176 12.4205 55.9602 12.1421C55.5057 11.8608 55.1548 11.4688 54.9077 10.966C54.6634 10.4603 54.5412 9.8722 54.5412 9.20175C54.5412 8.53129 54.6634 7.94039 54.9077 7.42902C55.1548 6.91482 55.4986 6.51425 55.9389 6.22732C56.3821 5.93754 56.8991 5.79266 57.4901 5.79266C57.831 5.79266 58.1676 5.84948 58.5 5.96311C58.8324 6.07675 59.1349 6.26141 59.4077 6.51709C59.6804 6.76993 59.8977 7.10516 60.0597 7.52277C60.2216 7.94039 60.3026 8.45459 60.3026 9.06538V9.49152H55.2571V8.6222H59.2798C59.2798 8.25289 59.206 7.92334 59.0582 7.63357C58.9134 7.34379 58.706 7.1151 58.4361 6.94749C58.169 6.77987 57.8537 6.69607 57.4901 6.69607C57.0895 6.69607 56.7429 6.7955 56.4503 6.99436C56.1605 7.19039 55.9375 7.44607 55.7812 7.76141C55.625 8.07675 55.5469 8.41482 55.5469 8.77561V9.35516C55.5469 9.84948 55.6321 10.2685 55.8026 10.6123C55.9759 10.9532 56.2159 11.2131 56.5227 11.3921C56.8295 11.5682 57.1861 11.6563 57.5923 11.6563C57.8565 11.6563 58.0952 11.6194 58.3082 11.5455C58.5241 11.4688 58.7102 11.3552 58.8665 11.2046C59.0227 11.0512 59.1435 10.8608 59.2287 10.6336L60.2003 10.9063C60.098 11.2358 59.9261 11.5256 59.6847 11.7756C59.4432 12.0228 59.1449 12.216 58.7898 12.3552C58.4347 12.4915 58.0355 12.5597 57.5923 12.5597Z"/>
<path d="M61.8153 12.4233V11.6563L64.696 8.50288C65.0341 8.13357 65.3125 7.81254 65.5312 7.53982C65.75 7.26425 65.9119 7.00573 66.017 6.76425C66.125 6.51993 66.179 6.26425 66.179 5.9972C66.179 5.69039 66.1051 5.42476 65.9574 5.20033C65.8125 4.9759 65.6136 4.8026 65.3608 4.68044C65.108 4.55828 64.8239 4.4972 64.5085 4.4972C64.1733 4.4972 63.8807 4.56681 63.6307 4.70601C63.3835 4.84237 63.1918 5.03413 63.0554 5.28129C62.9219 5.52845 62.8551 5.81823 62.8551 6.15061H61.8494C61.8494 5.63925 61.9673 5.19039 62.2031 4.80402C62.4389 4.41766 62.7599 4.11652 63.1662 3.90061C63.5753 3.6847 64.0341 3.57675 64.5426 3.57675C65.054 3.57675 65.5071 3.6847 65.902 3.90061C66.2969 4.11652 66.6065 4.40771 66.831 4.77419C67.0554 5.14067 67.1676 5.54834 67.1676 5.9972C67.1676 6.31823 67.1094 6.63215 66.9929 6.93896C66.8793 7.24294 66.6804 7.58243 66.3963 7.95743C66.1151 8.32959 65.7244 8.78414 65.2244 9.32107L63.2642 11.4177V11.4858H67.321V12.4233H61.8153Z"/>
<path d="M74.0071 5.87789C73.956 5.44607 73.7486 5.11084 73.3849 4.8722C73.0213 4.63357 72.5753 4.51425 72.0469 4.51425C71.6605 4.51425 71.3224 4.57675 71.0327 4.70175C70.7457 4.82675 70.5213 4.99862 70.3594 5.21737C70.2003 5.43612 70.1207 5.6847 70.1207 5.96311C70.1207 6.19607 70.1761 6.39635 70.2869 6.56396C70.4006 6.72874 70.5455 6.86652 70.7216 6.97732C70.8977 7.08527 71.0824 7.17476 71.2756 7.24578C71.4688 7.31396 71.6463 7.36936 71.8082 7.41198L72.6946 7.65061C72.9219 7.71027 73.1747 7.79266 73.4531 7.89777C73.7344 8.00289 74.0028 8.14635 74.2585 8.32817C74.517 8.50715 74.7301 8.73726 74.8977 9.01851C75.0653 9.29976 75.1491 9.64493 75.1491 10.054C75.1491 10.5256 75.0256 10.9517 74.7784 11.3324C74.5341 11.7131 74.1761 12.0157 73.7045 12.2401C73.2358 12.4645 72.6662 12.5767 71.9957 12.5767C71.3707 12.5767 70.8295 12.4759 70.3722 12.2742C69.9176 12.0725 69.5597 11.7912 69.2983 11.4304C69.0398 11.0696 68.8935 10.6506 68.8594 10.1733H69.9503C69.9787 10.5029 70.0895 10.7756 70.2827 10.9915C70.4787 11.2046 70.7259 11.3637 71.0241 11.4688C71.3253 11.5711 71.6491 11.6222 71.9957 11.6222C72.3991 11.6222 72.7614 11.5569 73.0824 11.4262C73.4034 11.2927 73.6577 11.108 73.8452 10.8722C74.0327 10.6336 74.1264 10.3552 74.1264 10.037C74.1264 9.7472 74.0455 9.51141 73.8835 9.32959C73.7216 9.14777 73.5085 9.00004 73.2443 8.88641C72.9801 8.77277 72.6946 8.67334 72.3878 8.58811L71.3139 8.28129C70.6321 8.08527 70.0923 7.80544 69.6946 7.44181C69.2969 7.07817 69.098 6.60232 69.098 6.01425C69.098 5.52561 69.2301 5.09948 69.4943 4.73584C69.7614 4.36936 70.1193 4.08527 70.5682 3.88357C71.0199 3.67902 71.5241 3.57675 72.081 3.57675C72.6435 3.57675 73.1435 3.6776 73.581 3.87931C74.0185 4.07817 74.3651 4.3509 74.6207 4.69749C74.8793 5.04408 75.0156 5.43754 75.0298 5.87789H74.0071Z"/>
<path d="M79.4094 12.5597C78.7958 12.5597 78.2674 12.4148 77.8242 12.125C77.381 11.8353 77.0401 11.4361 76.8015 10.9276C76.5629 10.4191 76.4435 9.83811 76.4435 9.1847C76.4435 8.51993 76.5657 7.93328 76.81 7.42476C77.0572 6.9134 77.4009 6.51425 77.8413 6.22732C78.2844 5.93754 78.8015 5.79266 79.3924 5.79266C79.8526 5.79266 80.2674 5.87789 80.6367 6.04834C81.006 6.21879 81.3086 6.45743 81.5444 6.76425C81.7802 7.07107 81.9265 7.42902 81.9833 7.83811H80.9776C80.9009 7.53982 80.7305 7.27561 80.4663 7.0455C80.2049 6.81254 79.8526 6.69607 79.4094 6.69607C79.0174 6.69607 78.6737 6.79834 78.3782 7.00289C78.0856 7.20459 77.8569 7.4901 77.6921 7.85942C77.5302 8.2259 77.4492 8.65629 77.4492 9.15061C77.4492 9.65629 77.5288 10.0966 77.6879 10.4716C77.8498 10.8466 78.0771 11.1378 78.3697 11.3452C78.6651 11.5526 79.0117 11.6563 79.4094 11.6563C79.6708 11.6563 79.908 11.6108 80.1211 11.5199C80.3342 11.429 80.5146 11.2983 80.6623 11.1279C80.81 10.9574 80.9151 10.7529 80.9776 10.5142H81.9833C81.9265 10.9006 81.7859 11.2486 81.5614 11.5583C81.3398 11.8651 81.0458 12.1094 80.6793 12.2912C80.3157 12.4702 79.8924 12.5597 79.4094 12.5597Z"/>
<path d="M83.4535 12.4233V5.87789H84.4251V6.86652H84.4933C84.6126 6.54266 84.8285 6.27987 85.141 6.07817C85.4535 5.87646 85.8058 5.77561 86.1978 5.77561C86.2717 5.77561 86.364 5.77703 86.4748 5.77987C86.5856 5.78271 86.6694 5.78698 86.7262 5.79266V6.81539C86.6921 6.80686 86.614 6.79408 86.4918 6.77703C86.3725 6.75715 86.2461 6.7472 86.1126 6.7472C85.7944 6.7472 85.5103 6.81396 85.2603 6.94749C85.0131 7.07817 84.8171 7.25999 84.6722 7.49294C84.5302 7.72306 84.4592 7.98584 84.4592 8.28129V12.4233H83.4535Z"/>
<path d="M90.4634 12.5597C89.8327 12.5597 89.2887 12.4205 88.8313 12.1421C88.3768 11.8608 88.0259 11.4688 87.7788 10.966C87.5344 10.4603 87.4123 9.8722 87.4123 9.20175C87.4123 8.53129 87.5344 7.94039 87.7788 7.42902C88.0259 6.91482 88.3697 6.51425 88.81 6.22732C89.2532 5.93754 89.7702 5.79266 90.3612 5.79266C90.7021 5.79266 91.0387 5.84948 91.3711 5.96311C91.7035 6.07675 92.006 6.26141 92.2788 6.51709C92.5515 6.76993 92.7688 7.10516 92.9308 7.52277C93.0927 7.94039 93.1737 8.45459 93.1737 9.06538V9.49152H88.1282V8.6222H92.1509C92.1509 8.25289 92.0771 7.92334 91.9293 7.63357C91.7844 7.34379 91.5771 7.1151 91.3072 6.94749C91.0401 6.77987 90.7248 6.69607 90.3612 6.69607C89.9606 6.69607 89.614 6.7955 89.3214 6.99436C89.0316 7.19039 88.8086 7.44607 88.6523 7.76141C88.4961 8.07675 88.418 8.41482 88.418 8.77561V9.35516C88.418 9.84948 88.5032 10.2685 88.6737 10.6123C88.8469 10.9532 89.087 11.2131 89.3938 11.3921C89.7006 11.5682 90.0572 11.6563 90.4634 11.6563C90.7276 11.6563 90.9663 11.6194 91.1793 11.5455C91.3952 11.4688 91.5813 11.3552 91.7376 11.2046C91.8938 11.0512 92.0146 10.8608 92.0998 10.6336L93.0714 10.9063C92.9691 11.2358 92.7972 11.5256 92.5558 11.7756C92.3143 12.0228 92.016 12.216 91.6609 12.3552C91.3058 12.4915 90.9066 12.5597 90.4634 12.5597Z"/>
<path d="M97.4478 12.5597C96.8171 12.5597 96.2731 12.4205 95.8157 12.1421C95.3612 11.8608 95.0103 11.4688 94.7631 10.966C94.5188 10.4603 94.3967 9.8722 94.3967 9.20175C94.3967 8.53129 94.5188 7.94039 94.7631 7.42902C95.0103 6.91482 95.354 6.51425 95.7944 6.22732C96.2376 5.93754 96.7546 5.79266 97.3455 5.79266C97.6864 5.79266 98.0231 5.84948 98.3555 5.96311C98.6879 6.07675 98.9904 6.26141 99.2631 6.51709C99.5359 6.76993 99.7532 7.10516 99.9151 7.52277C100.077 7.94039 100.158 8.45459 100.158 9.06538V9.49152H95.1126V8.6222H99.1353C99.1353 8.25289 99.0614 7.92334 98.9137 7.63357C98.7688 7.34379 98.5614 7.1151 98.2915 6.94749C98.0245 6.77987 97.7092 6.69607 97.3455 6.69607C96.945 6.69607 96.5984 6.7955 96.3058 6.99436C96.016 7.19039 95.793 7.44607 95.6367 7.76141C95.4805 8.07675 95.4023 8.41482 95.4023 8.77561V9.35516C95.4023 9.84948 95.4876 10.2685 95.658 10.6123C95.8313 10.9532 96.0714 11.2131 96.3782 11.3921C96.685 11.5682 97.0415 11.6563 97.4478 11.6563C97.712 11.6563 97.9506 11.6194 98.1637 11.5455C98.3796 11.4688 98.5657 11.3552 98.7219 11.2046C98.8782 11.0512 98.9989 10.8608 99.0842 10.6336L100.056 10.9063C99.9535 11.2358 99.7816 11.5256 99.5401 11.7756C99.2987 12.0228 99.0004 12.216 98.6452 12.3552C98.2901 12.4915 97.891 12.5597 97.4478 12.5597Z"/>
<path d="M102.694 8.48584V12.4233H101.688V5.87789H102.659V6.90061H102.745C102.898 6.56823 103.131 6.30118 103.444 6.09948C103.756 5.89493 104.159 5.79266 104.654 5.79266C105.097 5.79266 105.485 5.88357 105.817 6.06539C106.15 6.24436 106.408 6.51709 106.593 6.88357C106.777 7.2472 106.87 7.70743 106.87 8.26425V12.4233H105.864V8.33243C105.864 7.81823 105.73 7.41766 105.463 7.13073C105.196 6.84095 104.83 6.69607 104.364 6.69607C104.043 6.69607 103.756 6.76567 103.503 6.90487C103.253 7.04408 103.056 7.2472 102.911 7.51425C102.766 7.78129 102.694 8.10516 102.694 8.48584Z"/>
</mask>
<path d="M24 3.69607H25.2614L28.2273 10.9404H28.3295L31.2955 3.69607H32.5568V12.4233H31.5682V5.79266H31.483L28.7557 12.4233H27.8011L25.0739 5.79266H24.9886V12.4233H24V3.69607Z" stroke="white" stroke-width="2" mask="url(#path-2-inside-1_52_31)"/>
<path d="M37.1985 12.5597C36.6076 12.5597 36.0891 12.4191 35.6431 12.1378C35.1999 11.8566 34.8533 11.4631 34.6033 10.9574C34.3562 10.4517 34.2326 9.86084 34.2326 9.1847C34.2326 8.50289 34.3562 7.90771 34.6033 7.39919C34.8533 6.89067 35.1999 6.49578 35.6431 6.21453C36.0891 5.93328 36.6076 5.79266 37.1985 5.79266C37.7894 5.79266 38.3065 5.93328 38.7496 6.21453C39.1957 6.49578 39.5423 6.89067 39.7894 7.39919C40.0394 7.90771 40.1644 8.50289 40.1644 9.1847C40.1644 9.86084 40.0394 10.4517 39.7894 10.9574C39.5423 11.4631 39.1957 11.8566 38.7496 12.1378C38.3065 12.4191 37.7894 12.5597 37.1985 12.5597ZM37.1985 11.6563C37.6474 11.6563 38.0167 11.5412 38.3065 11.3111C38.5962 11.081 38.8107 10.7785 38.9499 10.4035C39.0891 10.0285 39.1587 9.6222 39.1587 9.1847C39.1587 8.7472 39.0891 8.33953 38.9499 7.96169C38.8107 7.58385 38.5962 7.27845 38.3065 7.0455C38.0167 6.81254 37.6474 6.69607 37.1985 6.69607C36.7496 6.69607 36.3803 6.81254 36.0906 7.0455C35.8008 7.27845 35.5863 7.58385 35.4471 7.96169C35.3079 8.33953 35.2383 8.7472 35.2383 9.1847C35.2383 9.6222 35.3079 10.0285 35.4471 10.4035C35.5863 10.7785 35.8008 11.081 36.0906 11.3111C36.3803 11.5412 36.7496 11.6563 37.1985 11.6563Z" stroke="white" stroke-width="2" mask="url(#path-2-inside-1_52_31)"/>
<path d="M41.8359 12.4233V3.69607H42.8416V6.91766H42.9268C43.0007 6.80402 43.103 6.65914 43.2337 6.483C43.3672 6.30402 43.5575 6.14493 43.8047 6.00573C44.0547 5.86368 44.3928 5.79266 44.8189 5.79266C45.37 5.79266 45.8558 5.93044 46.2763 6.20601C46.6967 6.48158 47.0249 6.8722 47.2607 7.37789C47.4964 7.88357 47.6143 8.48016 47.6143 9.16766C47.6143 9.86084 47.4964 10.4617 47.2607 10.9702C47.0249 11.4759 46.6982 11.8679 46.2805 12.1464C45.8629 12.4219 45.3814 12.5597 44.8359 12.5597C44.4155 12.5597 44.0788 12.4901 43.826 12.3509C43.5732 12.2089 43.3786 12.0483 43.2422 11.8694C43.1058 11.6875 43.0007 11.537 42.9268 11.4177H42.8075V12.4233H41.8359ZM42.8246 9.15061C42.8246 9.64493 42.897 10.081 43.0419 10.4589C43.1868 10.8339 43.3984 11.1279 43.6768 11.341C43.9553 11.5512 44.2962 11.6563 44.6996 11.6563C45.12 11.6563 45.4709 11.5455 45.7521 11.3239C46.0362 11.0995 46.2493 10.7983 46.3913 10.4205C46.5362 10.0398 46.6087 9.61652 46.6087 9.15061C46.6087 8.69039 46.5376 8.27561 46.3956 7.90629C46.2564 7.53414 46.0447 7.2401 45.7607 7.02419C45.4794 6.80544 45.1257 6.69607 44.6996 6.69607C44.2905 6.69607 43.9467 6.79976 43.6683 7.00715C43.3899 7.21169 43.1797 7.49862 43.0376 7.86794C42.8956 8.23442 42.8246 8.66198 42.8246 9.15061Z" stroke="white" stroke-width="2" mask="url(#path-2-inside-1_52_31)"/>
<path d="M49.1527 12.4233V5.87789H50.1584V12.4233H49.1527ZM49.6641 4.78698C49.468 4.78698 49.299 4.72021 49.157 4.58669C49.0178 4.45317 48.9482 4.29266 48.9482 4.10516C48.9482 3.91766 49.0178 3.75715 49.157 3.62362C49.299 3.4901 49.468 3.42334 49.6641 3.42334C49.8601 3.42334 50.0277 3.4901 50.1669 3.62362C50.3089 3.75715 50.38 3.91766 50.38 4.10516C50.38 4.29266 50.3089 4.45317 50.1669 4.58669C50.0277 4.72021 49.8601 4.78698 49.6641 4.78698Z" stroke="white" stroke-width="2" mask="url(#path-2-inside-1_52_31)"/>
<path d="M53.006 3.69607V12.4233H52.0004V3.69607H53.006Z" stroke="white" stroke-width="2" mask="url(#path-2-inside-1_52_31)"/>
<path d="M57.5923 12.5597C56.9616 12.5597 56.4176 12.4205 55.9602 12.1421C55.5057 11.8608 55.1548 11.4688 54.9077 10.966C54.6634 10.4603 54.5412 9.8722 54.5412 9.20175C54.5412 8.53129 54.6634 7.94039 54.9077 7.42902C55.1548 6.91482 55.4986 6.51425 55.9389 6.22732C56.3821 5.93754 56.8991 5.79266 57.4901 5.79266C57.831 5.79266 58.1676 5.84948 58.5 5.96311C58.8324 6.07675 59.1349 6.26141 59.4077 6.51709C59.6804 6.76993 59.8977 7.10516 60.0597 7.52277C60.2216 7.94039 60.3026 8.45459 60.3026 9.06538V9.49152H55.2571V8.6222H59.2798C59.2798 8.25289 59.206 7.92334 59.0582 7.63357C58.9134 7.34379 58.706 7.1151 58.4361 6.94749C58.169 6.77987 57.8537 6.69607 57.4901 6.69607C57.0895 6.69607 56.7429 6.7955 56.4503 6.99436C56.1605 7.19039 55.9375 7.44607 55.7812 7.76141C55.625 8.07675 55.5469 8.41482 55.5469 8.77561V9.35516C55.5469 9.84948 55.6321 10.2685 55.8026 10.6123C55.9759 10.9532 56.2159 11.2131 56.5227 11.3921C56.8295 11.5682 57.1861 11.6563 57.5923 11.6563C57.8565 11.6563 58.0952 11.6194 58.3082 11.5455C58.5241 11.4688 58.7102 11.3552 58.8665 11.2046C59.0227 11.0512 59.1435 10.8608 59.2287 10.6336L60.2003 10.9063C60.098 11.2358 59.9261 11.5256 59.6847 11.7756C59.4432 12.0228 59.1449 12.216 58.7898 12.3552C58.4347 12.4915 58.0355 12.5597 57.5923 12.5597Z" stroke="white" stroke-width="2" mask="url(#path-2-inside-1_52_31)"/>
<path d="M61.8153 12.4233V11.6563L64.696 8.50288C65.0341 8.13357 65.3125 7.81254 65.5312 7.53982C65.75 7.26425 65.9119 7.00573 66.017 6.76425C66.125 6.51993 66.179 6.26425 66.179 5.9972C66.179 5.69039 66.1051 5.42476 65.9574 5.20033C65.8125 4.9759 65.6136 4.8026 65.3608 4.68044C65.108 4.55828 64.8239 4.4972 64.5085 4.4972C64.1733 4.4972 63.8807 4.56681 63.6307 4.70601C63.3835 4.84237 63.1918 5.03413 63.0554 5.28129C62.9219 5.52845 62.8551 5.81823 62.8551 6.15061H61.8494C61.8494 5.63925 61.9673 5.19039 62.2031 4.80402C62.4389 4.41766 62.7599 4.11652 63.1662 3.90061C63.5753 3.6847 64.0341 3.57675 64.5426 3.57675C65.054 3.57675 65.5071 3.6847 65.902 3.90061C66.2969 4.11652 66.6065 4.40771 66.831 4.77419C67.0554 5.14067 67.1676 5.54834 67.1676 5.9972C67.1676 6.31823 67.1094 6.63215 66.9929 6.93896C66.8793 7.24294 66.6804 7.58243 66.3963 7.95743C66.1151 8.32959 65.7244 8.78414 65.2244 9.32107L63.2642 11.4177V11.4858H67.321V12.4233H61.8153Z" stroke="white" stroke-width="2" mask="url(#path-2-inside-1_52_31)"/>
<path d="M74.0071 5.87789C73.956 5.44607 73.7486 5.11084 73.3849 4.8722C73.0213 4.63357 72.5753 4.51425 72.0469 4.51425C71.6605 4.51425 71.3224 4.57675 71.0327 4.70175C70.7457 4.82675 70.5213 4.99862 70.3594 5.21737C70.2003 5.43612 70.1207 5.6847 70.1207 5.96311C70.1207 6.19607 70.1761 6.39635 70.2869 6.56396C70.4006 6.72874 70.5455 6.86652 70.7216 6.97732C70.8977 7.08527 71.0824 7.17476 71.2756 7.24578C71.4688 7.31396 71.6463 7.36936 71.8082 7.41198L72.6946 7.65061C72.9219 7.71027 73.1747 7.79266 73.4531 7.89777C73.7344 8.00289 74.0028 8.14635 74.2585 8.32817C74.517 8.50715 74.7301 8.73726 74.8977 9.01851C75.0653 9.29976 75.1491 9.64493 75.1491 10.054C75.1491 10.5256 75.0256 10.9517 74.7784 11.3324C74.5341 11.7131 74.1761 12.0157 73.7045 12.2401C73.2358 12.4645 72.6662 12.5767 71.9957 12.5767C71.3707 12.5767 70.8295 12.4759 70.3722 12.2742C69.9176 12.0725 69.5597 11.7912 69.2983 11.4304C69.0398 11.0696 68.8935 10.6506 68.8594 10.1733H69.9503C69.9787 10.5029 70.0895 10.7756 70.2827 10.9915C70.4787 11.2046 70.7259 11.3637 71.0241 11.4688C71.3253 11.5711 71.6491 11.6222 71.9957 11.6222C72.3991 11.6222 72.7614 11.5569 73.0824 11.4262C73.4034 11.2927 73.6577 11.108 73.8452 10.8722C74.0327 10.6336 74.1264 10.3552 74.1264 10.037C74.1264 9.7472 74.0455 9.51141 73.8835 9.32959C73.7216 9.14777 73.5085 9.00004 73.2443 8.88641C72.9801 8.77277 72.6946 8.67334 72.3878 8.58811L71.3139 8.28129C70.6321 8.08527 70.0923 7.80544 69.6946 7.44181C69.2969 7.07817 69.098 6.60232 69.098 6.01425C69.098 5.52561 69.2301 5.09948 69.4943 4.73584C69.7614 4.36936 70.1193 4.08527 70.5682 3.88357C71.0199 3.67902 71.5241 3.57675 72.081 3.57675C72.6435 3.57675 73.1435 3.6776 73.581 3.87931C74.0185 4.07817 74.3651 4.3509 74.6207 4.69749C74.8793 5.04408 75.0156 5.43754 75.0298 5.87789H74.0071Z" stroke="white" stroke-width="2" mask="url(#path-2-inside-1_52_31)"/>
<path d="M79.4094 12.5597C78.7958 12.5597 78.2674 12.4148 77.8242 12.125C77.381 11.8353 77.0401 11.4361 76.8015 10.9276C76.5629 10.4191 76.4435 9.83811 76.4435 9.1847C76.4435 8.51993 76.5657 7.93328 76.81 7.42476C77.0572 6.9134 77.4009 6.51425 77.8413 6.22732C78.2844 5.93754 78.8015 5.79266 79.3924 5.79266C79.8526 5.79266 80.2674 5.87789 80.6367 6.04834C81.006 6.21879 81.3086 6.45743 81.5444 6.76425C81.7802 7.07107 81.9265 7.42902 81.9833 7.83811H80.9776C80.9009 7.53982 80.7305 7.27561 80.4663 7.0455C80.2049 6.81254 79.8526 6.69607 79.4094 6.69607C79.0174 6.69607 78.6737 6.79834 78.3782 7.00289C78.0856 7.20459 77.8569 7.4901 77.6921 7.85942C77.5302 8.2259 77.4492 8.65629 77.4492 9.15061C77.4492 9.65629 77.5288 10.0966 77.6879 10.4716C77.8498 10.8466 78.0771 11.1378 78.3697 11.3452C78.6651 11.5526 79.0117 11.6563 79.4094 11.6563C79.6708 11.6563 79.908 11.6108 80.1211 11.5199C80.3342 11.429 80.5146 11.2983 80.6623 11.1279C80.81 10.9574 80.9151 10.7529 80.9776 10.5142H81.9833C81.9265 10.9006 81.7859 11.2486 81.5614 11.5583C81.3398 11.8651 81.0458 12.1094 80.6793 12.2912C80.3157 12.4702 79.8924 12.5597 79.4094 12.5597Z" stroke="white" stroke-width="2" mask="url(#path-2-inside-1_52_31)"/>
<path d="M83.4535 12.4233V5.87789H84.4251V6.86652H84.4933C84.6126 6.54266 84.8285 6.27987 85.141 6.07817C85.4535 5.87646 85.8058 5.77561 86.1978 5.77561C86.2717 5.77561 86.364 5.77703 86.4748 5.77987C86.5856 5.78271 86.6694 5.78698 86.7262 5.79266V6.81539C86.6921 6.80686 86.614 6.79408 86.4918 6.77703C86.3725 6.75715 86.2461 6.7472 86.1126 6.7472C85.7944 6.7472 85.5103 6.81396 85.2603 6.94749C85.0131 7.07817 84.8171 7.25999 84.6722 7.49294C84.5302 7.72306 84.4592 7.98584 84.4592 8.28129V12.4233H83.4535Z" stroke="white" stroke-width="2" mask="url(#path-2-inside-1_52_31)"/>
<path d="M90.4634 12.5597C89.8327 12.5597 89.2887 12.4205 88.8313 12.1421C88.3768 11.8608 88.0259 11.4688 87.7788 10.966C87.5344 10.4603 87.4123 9.8722 87.4123 9.20175C87.4123 8.53129 87.5344 7.94039 87.7788 7.42902C88.0259 6.91482 88.3697 6.51425 88.81 6.22732C89.2532 5.93754 89.7702 5.79266 90.3612 5.79266C90.7021 5.79266 91.0387 5.84948 91.3711 5.96311C91.7035 6.07675 92.006 6.26141 92.2788 6.51709C92.5515 6.76993 92.7688 7.10516 92.9308 7.52277C93.0927 7.94039 93.1737 8.45459 93.1737 9.06538V9.49152H88.1282V8.6222H92.1509C92.1509 8.25289 92.0771 7.92334 91.9293 7.63357C91.7844 7.34379 91.5771 7.1151 91.3072 6.94749C91.0401 6.77987 90.7248 6.69607 90.3612 6.69607C89.9606 6.69607 89.614 6.7955 89.3214 6.99436C89.0316 7.19039 88.8086 7.44607 88.6523 7.76141C88.4961 8.07675 88.418 8.41482 88.418 8.77561V9.35516C88.418 9.84948 88.5032 10.2685 88.6737 10.6123C88.8469 10.9532 89.087 11.2131 89.3938 11.3921C89.7006 11.5682 90.0572 11.6563 90.4634 11.6563C90.7276 11.6563 90.9663 11.6194 91.1793 11.5455C91.3952 11.4688 91.5813 11.3552 91.7376 11.2046C91.8938 11.0512 92.0146 10.8608 92.0998 10.6336L93.0714 10.9063C92.9691 11.2358 92.7972 11.5256 92.5558 11.7756C92.3143 12.0228 92.016 12.216 91.6609 12.3552C91.3058 12.4915 90.9066 12.5597 90.4634 12.5597Z" stroke="white" stroke-width="2" mask="url(#path-2-inside-1_52_31)"/>
<path d="M97.4478 12.5597C96.8171 12.5597 96.2731 12.4205 95.8157 12.1421C95.3612 11.8608 95.0103 11.4688 94.7631 10.966C94.5188 10.4603 94.3967 9.8722 94.3967 9.20175C94.3967 8.53129 94.5188 7.94039 94.7631 7.42902C95.0103 6.91482 95.354 6.51425 95.7944 6.22732C96.2376 5.93754 96.7546 5.79266 97.3455 5.79266C97.6864 5.79266 98.0231 5.84948 98.3555 5.96311C98.6879 6.07675 98.9904 6.26141 99.2631 6.51709C99.5359 6.76993 99.7532 7.10516 99.9151 7.52277C100.077 7.94039 100.158 8.45459 100.158 9.06538V9.49152H95.1126V8.6222H99.1353C99.1353 8.25289 99.0614 7.92334 98.9137 7.63357C98.7688 7.34379 98.5614 7.1151 98.2915 6.94749C98.0245 6.77987 97.7092 6.69607 97.3455 6.69607C96.945 6.69607 96.5984 6.7955 96.3058 6.99436C96.016 7.19039 95.793 7.44607 95.6367 7.76141C95.4805 8.07675 95.4023 8.41482 95.4023 8.77561V9.35516C95.4023 9.84948 95.4876 10.2685 95.658 10.6123C95.8313 10.9532 96.0714 11.2131 96.3782 11.3921C96.685 11.5682 97.0415 11.6563 97.4478 11.6563C97.712 11.6563 97.9506 11.6194 98.1637 11.5455C98.3796 11.4688 98.5657 11.3552 98.7219 11.2046C98.8782 11.0512 98.9989 10.8608 99.0842 10.6336L100.056 10.9063C99.9535 11.2358 99.7816 11.5256 99.5401 11.7756C99.2987 12.0228 99.0004 12.216 98.6452 12.3552C98.2901 12.4915 97.891 12.5597 97.4478 12.5597Z" stroke="white" stroke-width="2" mask="url(#path-2-inside-1_52_31)"/>
<path d="M102.694 8.48584V12.4233H101.688V5.87789H102.659V6.90061H102.745C102.898 6.56823 103.131 6.30118 103.444 6.09948C103.756 5.89493 104.159 5.79266 104.654 5.79266C105.097 5.79266 105.485 5.88357 105.817 6.06539C106.15 6.24436 106.408 6.51709 106.593 6.88357C106.777 7.2472 106.87 7.70743 106.87 8.26425V12.4233H105.864V8.33243C105.864 7.81823 105.73 7.41766 105.463 7.13073C105.196 6.84095 104.83 6.69607 104.364 6.69607C104.043 6.69607 103.756 6.76567 103.503 6.90487C103.253 7.04408 103.056 7.2472 102.911 7.51425C102.766 7.78129 102.694 8.10516 102.694 8.48584Z" stroke="white" stroke-width="2" mask="url(#path-2-inside-1_52_31)"/>
</svg>
